<?xml version="1.0" encoding="utf-8"?>
<!-- Generator: Adobe Illustrator 21.0.2, SVG Export Plug-In . SVG Version: 6.00 Build 0)  -->
<svg version="1.1" id="Layer_1" xmlns="http://www.w3.org/2000/svg" xmlns:xlink="http://www.w3.org/1999/xlink" x="0px" y="0px"
	 viewBox="0 0 1170 819" style="enable-background:new 0 0 1170 819;" xml:space="preserve">
<style type="text/css">
	.st0{fill:#E8E8E8;}
	.st1{fill:none;stroke:#FFFFFF;stroke-width:1.2;stroke-linecap:round;stroke-linejoin:round;}
	.st2{opacity:0.7;enable-background:new    ;}
	.st3{font-family:'BentonGothicTab-Regular';}
	.st4{font-size:14px;}
</style>
<g>
	<g id="states">
		<path class="st0" d="M-26.1,747l1.3,1.2l0,0.5l0.9,1.8l-1-1.1l-0.3-1.1l-1.3-1.5L-26.1,747z M-12.1,750.8l-0.1,0.8l-0.4-0.5
			L-12.1,750.8z M1.6,755.7l-0.4,1.1l-0.6-0.2l0.2-1L1.6,755.7z M2.2,755.7l0.7,0.6l-0.5,0.3l-0.6-0.4L2.2,755.7z M3.4,755.8l0,0.6
			l-0.7-0.6L3.4,755.8z M-8,751.6l0.7,0.3l0,0.6l1.4,0.9l-1-0.1l-0.5,0.8l-1,0.1l-0.4-0.8l1-0.2l-1.1-1.3L-8,751.6z M-3.9,755.2
			l-0.5,0.1l-0.5-0.7l-1.7-0.4l2.4,0.2l0.6-0.2l0.4-0.9l0.7,0.5l-0.6,0.4l-0.3,0.8L-3.9,755.2z M-26,743.6l0.4,0.6l-0.6,0.2
			L-26,743.6z M0.4,753.9l-0.8,1.4l1.1,0.4l-0.5,0.9l-1.3-0.1l-0.7,0.3l0-0.9l-1,0.9l-0.1-0.7l1-0.5l-0.1-0.7l1.1,0.6l-0.1-1.4
			L0.4,753.9z M-19.7,745.9l0.4,0.7l-1,0.6l-0.6-0.5l0.1-0.8L-19.7,745.9z M3.2,753.8l0.6,0.6l-0.5,0.4l-0.7-0.2L3.2,753.8z
			 M-30,740.3l0,0.6l-0.9,0.5l-0.3,0.6l-1.1-0.4l-0.5,0.6l-0.3-0.8l1.2-0.3l0.6,0.2L-30,740.3z M17.5,758l-0.3,0.3l1,0.6l1,0.1
			l1.1,0.5l-2.8-0.4l-1.2-0.6l-0.9,0.1l-0.8-0.8l0.8-0.1l0.4,0.5L17.5,758z M24.1,757.7l0.6,0.7l-0.7,0.3l-1.1-0.1l0.4-0.8
			L24.1,757.7z M14.9,754.6l0.6,1.2l-0.7,0.7l-0.8,0l0.4,0.7l-1.8-0.1l-2.1,0.2l-0.7-0.6l-1.9-0.3l2.3-0.2l1.3,0.4l1.7-0.2l0.8-0.6
			l-0.6-0.6l0.7-0.6L14.9,754.6z M-48.2,727.4l-0.8,1.2l-0.4-0.6l-1.3-0.8l1.7-0.1L-48.2,727.4z M34.6,757.5l0.5,0.4l-0.4,0.6
			l-1.2,0.3l0.1-0.9L34.6,757.5z M39.9,757l0.3,0.8l-0.4,0.3l-1.2-1.1L39.9,757z M-50.7,721l1.3,0.8l0.2,1.5l0.8,0.5l-1.5-0.2
			l-0.4-0.6l-1.2,0.3l-0.6-0.8l0.7-0.6l-1-0.4l0.4-0.4l-1-0.5l1.3-0.1L-50.7,721z M43.5,758.4l2.3-1.8l0-0.8L47,755l1.5,0.3
			l-0.4-0.5l0.4-0.8l1.2-0.8l1.3-0.1l1.1,0.7l-0.5,1.1l-2.6,0.8l-1.4,1.5L43.5,758.4z M61.7,752.6l-1,1.1l-0.3-0.8L61.7,752.6z
			 M58.9,750.5l0.1,1.7l1.2-1.2l0.7,0.2l0,0.9l-0.6,0.1l-1.3,1.1l1.2-0.4l0.2,0.8l-1.4,0.2l-0.4,0.7l-0.5-0.4l-0.1,0.9l-0.8-0.3
			l-3.9,1l-1,0.5l-1.1-0.9l2.3-0.8l2.3-0.2l-0.3-0.9l0.9,0l-0.1-0.8l1.9,0.1l-1.6-0.6l-0.5-1.1l0.8-0.7L58.9,750.5z M68.1,751
			l0.2,0.6l-1.1-0.2L67,751L68.1,751z M63.2,749.4l1.3,1.1l-1.3,0.7l-0.9-0.2l0-1.2L63.2,749.4z M65.7,749.1l-0.5,0.7l0.7,0.1
			l-0.9,0.8l-0.5-1.2l0.5-0.5L65.7,749.1z M80.4,749.5l1.2,0.9l-1.2-0.1L80.4,749.5z M239.4,730.6l0.7,0.3l0,1l-1.2-1.1L239.4,730.6
			z M83.6,745.3l0.2,1l-0.5,0.5l-0.5-0.9L83.6,745.3z M246.6,727.3l0.5,0.7l-0.6,0.8l-1-0.4L246.6,727.3z M75.9,743.6l1.2,0.2
			l0.4,0.8l0.3,2.1l0.7-0.1l0.3,0.8l-0.9-0.2l-0.2-0.5l-0.6,0.8l-0.9,0.3l-1.1-0.4l-1.6-0.1l-1.3,0.6l-0.2,0.6l-1.6,0.4l-1.1-0.4
			l-0.4-1.1l0.2-0.6l1.2-0.3l1.1-1.8l0.8-0.4l1,0.4l2-0.9L75.9,743.6z M86.4,743.9l0.9,0.8l-0.6,0.4l-0.7-1.1L86.4,743.9z
			 M238.1,728.4l1.2,1.2l-0.2,0.4l-0.8-0.2l0.3-0.6L238.1,728.4z M98.6,744.6l0,0.9l-0.9,0.7L98.6,744.6z M236.5,728.4l0.8,0.9
			l0.1,0.8l2.4,1.9l0.4,0.7l-0.9,0.2l-1.8-1.6l-1.4-1.4l-0.3-1.3L236.5,728.4z M244.7,725.6l0.8,0.5l0.4,1.3l-1.4,0.3l0.2-1.2
			l-0.6-0.5L244.7,725.6z M96.8,744.2l-0.2,1.5l-1.4,0.9l0.2-1.6l0.7,0.4l0.3-1.2L96.8,744.2z M235,727.9l0.8,0.5l0,0.5l-0.9,0.3
			l-0.3-1.1L235,727.9z M94.3,743l-0.1,1.1l-0.9-0.8L94.3,743z M92.4,742.4l0.1,0.9l0.5-0.1l0.5,1.2l-0.4,0.5l-1.7-0.9l0.2-1.2
			L92.4,742.4z M242.4,724.7l1.2,0.6l0.1,1.9l-1.2-1.4L242.4,724.7z M233.8,727.7l0.6,0.1l-0.8,1.1L233.8,727.7z M94.8,742.1
			l0.4,0.6l-0.9-0.3L94.8,742.1z M234.2,726.8l-0.8,0.6l0.2-0.8L234.2,726.8z M232.6,726.7l0.8-0.1l-0.2,1l-0.7-0.3L232.6,726.7z
			 M234.4,725.9l0.5,0.5l-0.2,0.6l-0.7-0.6L234.4,725.9z M232.5,723.9l1.4,0.2l-1.1,0.3l0.3,0.7l-1.1-0.5L232.5,723.9z M119.5,740.8
			l-0.9-0.4l1-0.6L119.5,740.8z M233.7,722.8l0.6,1.2l-0.7-0.5L233.7,722.8z M228.8,724.3l0.8-0.3L229,725L228.8,724.3z M243.7,719
			l1.2,0.8l1.3,1.6l0.5,1.9l0,1.4l-0.5,0.9l-1.6-0.4l0.4-1.8l-0.7,1.9l-2-0.8l0.5-1.7l-0.6-0.2l-0.3-0.8l0.7-0.9l-0.6-0.8L243.7,719
			z M242.8,719.4l-0.8,0.5l0.7-0.9L242.8,719.4z M232.3,720.8l0.7-0.1l0.4,1.2l-0.5,0l-1.1,1l-0.2,0.7l-0.6-0.2l0.5-1.8L232.3,720.8
			z M236.8,717.6l0.5,0.9l1.7,0.6l-0.5,0.5l0.8,0.8l-1,0.8l-0.7-0.4l0.3-0.5l-1.1-0.3l-0.4,0.5l-0.8-1.4l0.5-0.4l0-0.9L236.8,717.6z
			 M230.9,719.4l0.9,0l1.3-0.5l1.1,1.1l-0.1,0.8l1,0.6l0.7-0.4l1.2,0.5l1.2,1l0.6,1.5l0.4-0.5l0.6,0.8l0.9,0.6l-1.8-0.5l-0.8,1
			l1.1-0.7l0.7,1l0.5-0.4l1.2,1l-0.7,0.7l0.9-0.1l0.1-0.8l0.7,1.4l-0.6,0.7l0.8,0l0.6,1.1l-0.7,0.3l1,0.3l0.1,1.3l-1.2,0.1l-1.5-1.8
			l-1,0.4l0-1.4l-0.5,0.5l0-0.9l-0.5,0.4l-1.7-0.6l-1.3,0.3l-0.2-0.9l0.9-0.3l-0.9-0.6l0-1.5l-0.7,0.7l-0.9-0.1l0.6-2l-0.6-0.6
			l-1.1-2.4l-1.5,0.3l-0.6-0.8L230.9,719.4z M235,717.1l0.6,0.4l0.1,1.1l-0.9,0.7l-1.2-0.6l0-1L235,717.1z M238.3,718.6l-1.2-0.6
			L237,717l-0.5-0.7l0.8,0.1l0.9,0.8l0.5-0.3l1,1.1l-0.5,1L238.3,718.6z M128.3,733.4l-0.4,0.5l-0.9,0L128.3,733.4z M111.2,732.9
			l1.2,0.3l-1.7,0L111.2,732.9z M125.3,733l-0.5,1l-1,0.8l0.4-1.1L125.3,733z M127.3,733.2l-0.8,0.9l-0.7-0.5l0.7-0.7L127.3,733.2z
			 M48.1,723.4l1.3,0.5l-0.7,0.5L48.1,723.4z M233,714.3l2.5,1.4l-1.1,1.2l-0.7,0.1l-0.3-1.2l-0.7-1.4L233,714.3z M228.5,716.3
			l-0.3-0.5l0.9,0l-0.1,2.6l0.2,2.4l0.3-0.3l0.3,1.8l-0.4-0.2l-0.7-1.7l0.6,2.8l-0.7-0.5l-0.8-1.7l-0.2-1.5l0.9-0.3l-0.6-0.9
			l-1.1,0.2l0-0.5l-0.9-0.9l-0.4-1.1l0.7,0.2l0-1.1l1.1,0.2L228.5,716.3z M227.5,713.2l2.5,0.1l1.6-0.4l0.8,0.5l1,2.3l-0.2,0.7
			l-1.2-0.6l-1.1-1.3l1,2l0.7,0l0.3,0.7l-0.3,1l-1.3-0.1l0.2,0.4l-1,0.5l-1-2l0-1.2l-0.5,0.1l-0.5-0.7l-1.5-0.8L227.5,713.2z
			 M131.7,727.4l1.2,0.1l0.3,0.6l-1.3,0.3l-0.7,1l-0.4-1.1L131.7,727.4z M47.7,717.4l-1,0.8l-0.5-0.7L47.7,717.4z M217.8,713.7
			l1,0.9l0.6,1.1l-0.1,0.8l-1,0.5l-0.8-3.1L217.8,713.7z M226,721.9l0.2,0.8l-0.9-0.4l-2-2.2l0.3-0.9l-0.7,0.4l-0.8-1l-0.1-0.7
			l-0.9,0.1l-0.4-1.1l0.5-1l-1-0.3l-0.2-1.4l-0.8,0.3l-1.1-0.8l1-0.3l-0.7-0.2l0-1l1-0.6l0,0.6l0.6-0.3l1.2,0.5l0.8-0.3l0.2,1.2
			l1.8,3.1l1.1,2.2L226,721.9z M130.4,720.4l0.8,0.5l0.4,1l-1.3-0.8L130.4,720.4z M131.4,720l1.3,0.8l0.2-0.4l0.7,0.4l-0.6,0.8
			l0.9,0l0.5-0.9l1.5,0.9l-1.1,1l0.5,0l0,1.1l1.6-0.2l-0.9,1.9l-0.9-0.1l-1.1-0.7l-0.4,0.3l0.9,0.6l-0.4,1.2l-0.6,0.1l-1-0.7
			l-0.4,0.3l0.8,0.5l-0.7,0.5l-1-0.1l-1.1,1.5l-0.8-0.2l0.6,0.8l-1.8,2.1l-1.3,0.2l0.4-0.9l1.1-1.1l-0.6,0.1l0.3-1l-0.8,0.8
			l-0.3-0.2l0.8-1.1l-1.3-0.4l-1.2,0.3l0.2,0.7l0.6-0.6l1-0.1l-1,2l-1.2-0.8l-0.1-1.9l-1.1-0.9l0.2-1.2l0.5-0.8l1.4-1.2l1.7,0
			l0.1,0.9l1.1,2.2l-0.3-1l0.1-1.4l-0.4-0.8l1.3,0.1l-1.7-0.9l0-0.7l1-0.8l0.7,0.6l0.1,1.2l0.3-1.2l1.4,0.4l-0.2-1l0.9,0.7l-1.1-1.3
			L131.4,720z M212.4,707.9l0.9,0.6l-0.1,1.6l-0.6-0.5L212.4,707.9z M131.6,719.1l0.5,0.1l0.7,1l-1.4-0.6l-0.9-0.1l0.8-0.8
			L131.6,719.1z M215.5,708l3,1.1l0.9,0.7l0.5-0.7l0.9-0.3l1.2,2.3l-1.1,0.5l-0.6-0.4l-3.7-1.4l1.7,1.2l0.4,1.2l-0.5,1l-0.7,0
			l-1.1-1l1.1,0.5l-2.1-1.3l0-0.4l-1.4-1l-0.2,0.1l-0.1,0l-0.1-1.6l2,1l0,0l-2.5-1.6l0-1.2l0.7,0.2l0.3-0.6l0.8-0.1l0.5-0.9l1.8,0.6
			l-0.3,1.3l0.3,0.5l0.5-1.7l0.7,0.4l0.8-0.3l1.2,0.7l-0.2,0.9l-1.2-0.3l1.7,1l-1.2,0.6l-1-0.4L215.5,708z M221,703.1l1.6,0.8
			l-1.8,0.1l-0.4-0.4L221,703.1z M220.5,704.4l0.2,0.6l1.3-0.5l0.5,0.2l0,0l0.6-0.5l-0.1,0.4l2.4,2.3l0.4,1.1l-0.4,0.1l-2.4-3
			l0.4,0.9l-0.5-0.1l1.7,2.1l1.2,0.8l0.4,1l-0.9,0.2l1.4,0.8l-0.3,0.9l-1.2-0.5l0.6,1.6l-0.6,0.6l-0.1,0.8l-0.8,0.9l-0.6-0.9
			l-0.3-1.2l0.5-0.6l-0.2-0.7l-2-2.5l-0.2-1l-1.1-1.9l0.1-0.4l-0.1-0.9l0.1,0.8l-0.8-0.7l-0.8-1.9L220.5,704.4z M135.9,716l0.4,0.7
			l0.7-0.3l-0.2,1l0.9-0.6l-0.1,1.1l-0.4,0.6l-1.2-0.8l0.3,1l-0.8,0l-0.6,0.5l-0.1-1.2l-0.3,1.3l-0.7,0.1l0,0.7l-1.9-1l-0.2-0.9
			l1,0.1l-0.5-0.6l0.3-0.5l1.3,0.2l-0.1-1.1l0.7-0.7l0.9,0.1l0.6,1.2L135.9,716z M134.2,714.7l1.5-0.6l-0.6,1.5l-0.7-0.2
			L134.2,714.7z M95.7,710.9l-1.1,2l-0.9,0.2l0.2-1.4L95.7,710.9z M130.4,706.8l0.4,0.6l-1,0.2L130.4,706.8z M143.6,706.6l-0.4,1.1
			l0.1-1.2L143.6,706.6z M172.7,698.2l-1.4,1.9l0-0.5L172.7,698.2z M156.1,699.4l-0.2,0.9l-0.7,0.3L156.1,699.4z M155.2,699.8
			l0.3-1.1l0.4,0.4L155.2,699.8z M155.1,698.3l-0.5,1.6l-0.6-0.5L155.1,698.3z M89.6,697l0.3,0.7l-0.5,0.3L89.6,697z M159.1,696.5
			l0.6-0.1l-0.3,0.8l0.8-0.4l-1.2,1.5l-1.1,2.1l0.3,0.6l-1,0.8l-1.1,0.2l0.1-0.8l1.9-2.3l1-1.6L159.1,696.5z M155.1,696.6l0,0.9
			l-0.6-0.4L155.1,696.6z M72.5,692.3l0.1,1l1,0l0.8,0.6l-0.6,2.1l0.5,1.3l-2.2,0.2l-1,0.9l-0.9-1.2l-0.8-0.1l-1.5-1.6l-0.5-0.1
			l-0.9-1l-0.1-1.1l0.5-0.3l2,0.7l0.2-0.6l1.8-0.7l1.4,0.4L72.5,692.3z M161.7,694.9l0.9,0.1l0,0.6l1.1-0.4l0.2,0.3l-1.5,0.9
			l-0.8,0.8l-0.4-0.4l0.9-0.9l-1,0.3l-0.1-0.4L161.7,694.9z M137.4,697.1l-0.5,0.6l0.3-1.3L137.4,697.1z M155.6,697.7l0.2-1.7l1,0.1
			l-0.4,2.6L155.6,697.7z M42.9,683.6l0,0.9l1,1.4l0.9,0.4l0.5,0.9l-1.6-0.5l-1.1-1.9l-0.5-0.3L42.9,683.6z M164.9,693.6l0,0.3
			l-1.7,1.3l-0.4-0.6L164.9,693.6z M157.4,693.5l0.6,0.2l-0.8,0.5L157.4,693.5z M153.9,693.1l0.5,0.9l-0.7-0.2L153.9,693.1z
			 M78.9,688.7l0.1,0.6l1.1-0.1l-0.3,0.7l1,0.1l0.8,0.5l0.1,1l-0.9,0.8l-0.7,0.2l0.2,0.7l-0.7,0.2l-0.7,1.3l-0.7-0.2l-1.1-1.4
			l0.9-0.9l-1.1,0.2l-0.9-0.7l2.3-1.1l-0.2-0.7l0.7-0.2L78.9,688.7z M154.5,691.5l0.6,1l-1,0.2L154.5,691.5z M82.3,671.7l1.1,0.5
			l-1.5,1.2l0.1-1.7L82.3,671.7z M84,669.7l1.1,1.3l0,1l0.5,1.2l-0.2,0.9l-0.9-1.4l-2.5-1.2l0.3-0.9l0.8-1L84,669.7z M86,667.8
			l1.3,0.7l0.7,0.9l-1.2,0.7l-0.7,1.1l-0.8-0.1l-0.9-1.4l-0.9-0.5l0.1-0.6l1.1-0.7L86,667.8z M93.1,665.3l0.1,0.8l-1.3-0.4
			L93.1,665.3z M56.2,656.5l0,1l2.2,1.7l2.3-0.7l0.7,0.3l0.5,0.9l0,1.1l1.5,0.9l0.3,0.7l2.1,0.7l1.2,0.7l-1,1.2l-1.8-0.8l-1.4,1.2
			l0.1,0.5l-0.9,0l0.4-0.7l-0.6-1.2l-1.4-0.7l0.3-0.7l-1.1-1.5l-1-0.9l-1.9,0.3l-0.7,0.5l-1.1-0.9l-0.1-1.2L56.2,656.5z M88.1,637.3
			l-0.6,0.3l-2.4,0.5L88.1,637.3z M138.6,603.8l-0.2,0.7l-0.5-0.6L138.6,603.8z M204,703.3l-0.3-0.9l-1.5-1l-1.5-0.3l0.1-0.8
			l-0.9,0.5l-3.6-1.5l-1.2-0.2l-1.5-0.7l0.9-0.4l0.6-1.5l-1.1-1.6l0.4-0.9l1.1,1l0.2-0.1l-1.1-1.1l-0.7-0.3l-0.1,1l-0.5,1.3
			l-2.2,1.7l-2.6,0.2l-2.9-0.8l0.7-1.2l-0.9-1.4l-0.5,0.5l0.9,0.7l-0.9,0.8l-4.7-0.3l-4.4,1.1l-1.4,0.7l-1.9-1.1l0-0.4l-1.6,0.3
			l-0.6-0.8l-1.1-0.1l0.4-1.6l-0.2-1.3l-0.9,0.9l-0.2,0.7l-0.9,1.1l-0.8-0.7l-1.2-0.4l-0.9,0.3l1.3-2.1l-1.8,0.6l0.3-0.9l-1.4,1
			l0.7-1.1L162,693l-1.1,0.1l-0.2-0.4l1.6-0.7l0.7-0.6l-1.6,0.5l-0.9-0.8l0.3-1.7l1.7-0.2l-0.3-0.4l-1.2,0.3l-1.6,1.9l-0.7-0.6
			l-0.2,0.8l-0.9,0.7l-0.6-0.1l-0.2-1.7l-0.5,1.8l-0.8,0.8l-1-0.9l0.4-1.3l0.7-1.1l0.1-0.9l-1.1,1.9l-0.2,0.8l-0.5-0.6l-0.5,2.3
			l-1.4,1.1l0,0.6l1-1.1l0.1,1.5l0.5-1.3l0.5,1.3l-0.6,0.8l-0.7-0.3l-0.7,0.8l0,0.4l0.9-0.9l0.9,0.4l0.8-1l0.5,0.6l0.1,1l-1.5,1.6
			l1,0.4l-1.1,1.2l-0.2,1.4l-1,0.3l-2.1-0.2l0.3-0.8l-0.6,0.1l-0.6,1.1l-0.5-1.8l0,1.2l-0.7,0.9l-0.2,0.9l-0.4-1.3l-0.2,2.7
			l-1.5-1.6l0,0.8l0.7,0.4l-0.6,0.6l-0.1,0.8l-1,0.5l0.2-1.9l-1,2.7l-0.6-0.7l0.1,1l-0.7,0l-1.2,2.1l-0.2-1.1l-0.5,1.1l-1.1-0.4
			l-0.3,0.4l-1.3,0.5l0-0.5l-1.1-0.3l0.3-1.4l0.9-0.6l1.2-0.1l0-0.7l1.2-0.5l-0.1-0.4l1.2-1.5l-0.6,0l-2,1.6l-0.7-0.1l-1.1-1.1
			l0.7-2.5l1.2-1.7l0.1-1.4l0.4-0.3l0.1-1.5l-0.7-1.6l1.5-0.7l1.5-1.5l1.3-1l0.9,0.9l0.7,0.1l1.2-0.6l0.6,0.4l2.4,0.3l0.3,0.3
			l-0.8-0.9l-0.7,0.2l-1.8-0.7l-1.5-1.1l1-1.6l1.7-1.5l0.7-0.2l-0.7-0.3l-1.1,0.3l-1,1.1l-0.4,1.3l-2.1,0.1l-0.6-1.1l0,0.8l-1.6,0.9
			l-0.8,1.4l-1.4,0.4l-1.4,1.5l0.5,1.1l-0.7,0l-0.9,0.7l-0.2,0.7l-0.9,0.8l-0.3,1.9l-0.8,0.8l-1.7-0.2l1.2,0.7l0.5,0.9l-0.6,1.5
			l-0.5,0.3l-1.9,0.2l-0.3,0.5l1.3,0l-0.3,1.1l-0.8,0.5l-0.9-0.1l0.4-0.7l-0.6-0.7l0.1,1l-0.7,1.3l-1.1,0.1l0.5,1l-1.8,0.9l-0.1,1.4
			l-0.4,0.2l0.3,1.4l0.5-0.5l1.8,0l0.7,0.8l1,0.6l0.1,0.6l0.3,0l-0.4,0.1l-0.5,1.3l-1.1,0.9l-1.1,0l-0.3,1.1l-0.6,0l0.2,1.2
			l-0.7,0.3l0.4,0.4l-1.1,1.1l-0.1,0.7l-0.6-0.9l0.1,0.8L125,719l-0.9,0.9l-1.4-0.1l-0.2,1.1l-1.5,1l-0.2,0.5l-1.1-0.5l0.1,1.2
			l-0.7,0.3l0,0.8l-1.4-0.2l-0.1,1.2l-0.9-0.4l-1.7,1.3l-0.1,0.5l1-0.4l-0.4,0.9l0.2,0.5l-1,1.6l-0.9-0.5l-0.6,1.3l-0.3-0.6
			l-1.7,1.8l-0.9-1l-0.2,0.9l-0.8,0.7l0.5,0.6l-0.9,0.1l-0.5-0.6l-1.6,0.6l-0.5,0.6l1.5-0.2l-0.2,0.7l-1.4-0.5l0.1,0.5l-1.1-0.2
			l-2,1.9l1.4-0.6l1.2,0.6l-1.8,2.7l-0.6-1.3l-0.1,1.2l-1-0.4l-0.4,0.8l-2.2,0.3l-0.5,0.8l-0.1-1l-0.4,0.1l0.1,1.2l-0.5,1.1
			l-0.3-1.8l-0.8-0.3l-0.5,0.6l-0.4-0.3l-0.3,0.9l-1.9,0.8l-1.1,1.2l-0.3-1l-0.4,1.1l-0.6,0l-0.7-0.7l-0.5,0.7l-1.8,0.6l-1-0.2
			l0.3-1l0.7-1l-1.2-0.4l-0.7,0.7l-0.1,1.2l-1.2,1.6l-0.8-0.2l0.3,1.1l-0.7,0.4l-0.5-0.8l-0.5,1.2l-1.1-0.4l0-1.9l-0.7-0.6l-0.4,0.4
			l0.5,0.8l0,2.1l-0.5-0.9l-0.3,0.8l-1.1-0.1L80,744l-1-0.6l-0.2,0.9l0.9,0.9l-1.9,1l0.7-2l0-0.8l0.6-0.4l1.8,0.1l0.6-1.1l0.8-0.5
			l0.7,0.1l-0.1-0.9l1.8-1.9l2.5-1.5l2.3-0.3l1.4,0.1l1.2-0.2l-0.9,0.9l1.1,1.7l0.6,0.3l-0.3-1.8l1.2,0.3l0.2,0.7l1.1,0.4l0.2-0.6
			l-1.4-1.1l-0.2-0.6l1.3-2.4l2.9-2.2l2.7-1l2.3-1.8l0,0.1l0,0.6l1.4,0.5l-0.2-2l0.4-0.8l1.7-2l1.2-0.7l0.8-0.9l1.1-0.8l0.7,1
			l-0.1-1.5l-0.4,0.1l0-1l0.7-3.3l0.4-0.7l0.6-0.1l-0.7-1.5l0.4-1.4l1.1-1.1l1.1-1l0.4-1.5l-0.2-0.6l-0.7,0.9l-1.9,0.9l-2.9,1.1
			l-0.8-0.4l-0.1-0.7l-1-0.8l0.5-1.8l-0.6,0.8l-0.8,0.2l-0.2,1.4l-0.4,0l0.5,2.2l-0.3,0.8l-1.2-0.4l-1.4-3.1l-1.2-0.8l0.2-0.9
			l-0.5,0.2l-0.4,1l-0.6,0.2l-0.4-1l-1.1-0.2l0-1.2l-0.5-0.4l-2,1.3l-1.3,0.4l-0.2,0.1l-1.4,0.7l-0.3,0.7l-1.9,0.7l-0.1-0.7
			l-1.8-0.4l1.6-0.4l1.2-0.7l-0.5-0.1l-0.2-2l1.3-0.4l-0.1-0.5l-1.3,0.5l-0.5-1.5l0.5-1.4l1.3-1l-0.6-1.3l-0.3-1.6l-0.5-0.8
			l-0.5-1.9l0.3-0.5l-1.1-1.7l0.7-0.5l0.7-1.8l-0.2-0.3l-0.9,2l-0.8,0.4l0.3,1.3l-0.3,1.5l-0.7,0.5l-2.9,0.9l-2.6,0.1l-1.6-0.6
			l-0.3-1.1l0.5-0.1l-1.1-1.2l-0.9-1.7l0-0.6l0.7-0.7l-0.1-0.7l0.7-0.1l-0.2-0.8l0.6,0.1l0.6-0.7l0.7-0.1l0.5-0.8l1.1,0.2l-0.3,1.6
			l0.7,0l1.2-1.1l-0.5-0.9l-1.6-0.7l1,0.1l0.7-0.4l-0.9-0.3l-0.9,0.6l0.1-1.8l-0.9,0.8l0.2,0.7l-2,0l-0.2-0.8l-0.9,0.2l-0.2-0.5
			l-1.2,0l-0.2-0.6l1.1-0.2l-1.5-1.9l-0.2,1.1l-0.8-0.2l-0.1-1.3l0.3-0.4l-0.9-0.5l-0.1-1.1l0.8-0.5l-0.6-0.8l-1,0.4l0.1-1.3
			l1.7-0.1l-0.8-0.4l-0.5-1.1l2.2,0.1l-0.4-1.6l0.6-1.2l2.1-2.3l1.1-0.9l0.9,0.2l1.7-1.7l1.2,0.6l1.2,2.2l0-2.3l-0.6-1l0.1-0.6
			l1.3-0.1l0.2-0.8l1.2-0.7l0.7,0.8l1.2-0.1L91,669l1.1-0.5l1.2-1.6l0.3-0.8l1.2,0.7l-0.6,0.4l2.6,0.1l1.6-0.3l1.8-2.3l-0.4-3l0-1.4
			l-1-1.5l-1-0.2l0.3-1l1.5,0.3l1.2-1l0.2-1l-0.4-1l-1-1.1l-1,1.4l-1.3-0.2l-0.9,0.6l-1,0.1l-0.3,0.5l-1.3,0.6l-0.5,1.3l-0.7,0.5
			l0-1.6l-1.2-1.6l-0.7,0.5l0.9,0.9l-0.1,0.9l-1.7-1.7l-2.9-0.4l-3,0.6l-1.1-0.6l-3.4-1.5l-0.7-1.6l0.5-0.7l0-0.7l-0.9-1.1l-0.6-1.6
			l0.9,0.4l0.9-0.5l0.6-0.8l1.1,0.6l0.6,1.6l0.7,0.3l1-0.5l-0.5-0.5l-1.1-0.3l-0.3,0.3l-0.7-1.4l-2.5-1.3l-2-0.7l-1.6-1.8l-0.6-0.4
			l1.3-1l0.8,0.2l0.2-0.8l1.3-0.6l0.3,0.5l1.6-0.9l0.7-0.8l1.5-0.6l0.8,0.7l1.6,0.2l0.5-0.3l-1.2-1l0.8-0.8l1.1-0.4l1.5,0l0.1,0.4
			l1.4-1.2l1.1-0.2l2.1,0.2l0.1,1.3l-0.5,0.5l0,1.1l-0.4,0.5l0.2,0.9l0.7,0.7l0.5-0.2l1.5,0.4l1.3-0.2l0.4,0.6l0.9,0.2l1.4-0.2
			l0.6,1.1l0.4-1l1.3-1.6l1,0.6l0.8-0.2l-0.6-1l-1.9-0.7l-1,0.5l0.4-1.6l-0.9-1.8l-1-0.5l-0.4-1.3l0.6-0.7l0.6,0.1l1,1.7l-0.4,1.2
			l0.5,1l1.1,1.1l1.6-0.7l1.3,1.7l2,0l0.3-0.9l-0.3-1.1l-1.2,0l-0.5-0.7l-1.2,0L101,639l-1,0l-1.2-1.9l0.5-1.5l1.2-0.6l-1.2-1
			l-1.5,0.4l-1.3-0.1l-0.4-0.7l-0.7,0.2l-2.8-1.3l-0.1-2.8l-0.6-1.9l-1.2-1.2l-2.5-3.3l-1.9-1.4l-0.3-0.8l-1.4-1.6l0.7-0.3l0.8-1.4
			l0.6-2.7l2.9,0.7l3.6-0.1l1.2-0.4l1.7-1.2l1.7-1.9l1-2.8l-0.3-0.4l1.7-1.5l0.6-1.1l1.1-0.9l0.9-1.2l0.5,0.8l1.3-0.2l2-1l1.8-1.5
			l1-0.2l-0.5,1.8l0.4,1.3l0.1-1.7l0.5-0.4l-0.5-1.2l-0.6-0.1l1.6-1.5l1.6-0.5l-0.6,0.4l0.4,0.5l3.7-0.4l1.6-0.9l0.8-0.9l1.6-2.2
			l0.5-0.4l0.7,0.7l1,0.3l0.1,0.7l1.4,0.1l0.2,0.8l-0.7,0.9l-1.4,0.6l0.7,0.2l-0.5,0.6l1.5,0.1l0.5-0.3l-0.1-0.8l0.8-0.7l0.3-0.8
			l0.3,0.6l0.8-0.4l0.7,0.9l-0.3,1l1.5,1.1l0.8-1l1.4,0l1.1-0.3l1.1,0.4l0.3,1.3l0.3-1.3l1.1,0.5l-0.6,1.2l0,0.7l1.1,0.2l-1.7,0.4
			l2.8-0.2l-0.5,1.1l1.8,0.1l0.4,0.5l0.2-0.8l1.4-0.2l-0.2,1.2l1-0.8l0.9-0.3l0.7-0.8l2.2,0.1l1.1,0.8l0.8-0.1l0.4,0.7l1.2-0.3
			l1.1,0.9l2.4,0.5l1.6-0.6l1.8,0.3l0.5-0.4l2.1,1.3l2.1-0.1l0.3-0.5l3.7-1.5l1.7,0.4l1.4,0.8l0.6,0.6l1.5,0.2l1.6,1.2l0.4-0.5
			l0.7,0.2l2,10.3l4.8,24.1l7.1,36l2.7,13.8l0.2,0.8l2.3,0.4l0.1-0.9l2.4,0.7l1-1.7l2.7-0.8l0,2.5l0.8,0.7l1.7,0.4l0.7,1.2l5.8,3.6
			l1.1,2.2l0.1,0.7l2.6-3.1l1.1-0.4l0.2-1l-0.4-1.9l0.8-0.2l0.1-0.9l-0.6-0.2l1.7-1.1l0.9-0.9l0.9-0.9l1.4,0.6l1.3,0.9l0,1.3
			l0.5,0.6l0.5,0.5l1.3-0.1l0.2,0.5l1.1,0.3l1.1,1.3l0.6,0.8l2.3,0.6l0.9,0.9l2,1.1l-0.3,0.5l2,1.7l0.9,1.2l1.4,1.1l2.5,2.5l1.3,1
			l1,1l-0.2,1.3l1.7-0.1l0.1,1.6l1.4,0.2l0.8,1.8l1.2-0.5l3.1,1l1.5-0.2l1.1,0.6l0.8-0.1l0.5,0.8l1,0.1l0.6-0.5l0.9,0.8l0.3,0.9
			l-0.3,1.5l0.7,1.6l1.7,2.3l-0.3,1l0,1.3l-0.3,1.6l-1.1,1.8l-0.7-0.8l-0.2,1.2l-0.6-0.1l-1.1-1.8l0.6-1.1l-0.9,0.6l-0.6-0.8
			l0.7-1.4l-1.4-3.5l-2.4-1.8l-0.8,0.5l-0.3-0.4l-1.3,1.7l-0.7,0.3l0.9,0.6l-0.1,2.8l-1.3-0.4l-0.7-1.3l0.6-0.9l-0.3-1.3l0.3-0.1
			l-0.7-1.9l0.9-0.6l-0.9,0l-0.7-0.9l-1,0l-0.3-0.6l-1-0.4l0-1.4l-0.9,0.3l-0.4-0.6l-1.6-0.4l-1.3-1.1l0.7,0.1l-0.5-1.1l-0.1,0.7
			l-2.1-0.1l-1.3-0.3l-0.3-0.9l1.7-0.9l-1.4,0.1l-0.9-1.1l0-0.8l-1.1-0.2l0.1-1l2.4,0.7l-1.6-0.9l-0.8-0.1l-0.3-1.1l0.1-0.3l0.1-0.2
			l-0.3,0.9l-0.3,0.5l-1-1.1l-1.4-1l-0.6-1.6l0.4-0.5l-0.4-0.7l-0.4,2l-1.8-0.9l-1,0.1l-0.8-1.2l-1-1l-0.8-2.8l0,0l0.3,0.5l0,1.7
			l-0.8-0.8l-0.5-1.2l-1.8-3.1l-0.2-0.1l0.1,1.2l-0.6,0l1.2,1l0.3,1.2l2.1,2.8l0,0.5l1.1,1.8l0.1,1.1l-0.9,0.3l-0.8-0.7l-0.9-1.4
			l0.4,1.1l-0.8-0.3l-1.3,0.8l0-1.3l-1.9-2.4l1.3-1l-1.4,0.1l-1-1.2l0.9,1.8l0,1.1l-1.7-0.4l-0.5-1.1l-0.3,0.9l-1.3-0.3l-0.5,0.7
			l1.3-0.1l1.3,0.4l-0.5,0.4l1.5,0.4l-0.6,1.1l0.8-0.7l0.6,0.1l1.3,1.9l-0.9,0.9l-0.1-0.4l-0.9,0.8l-0.6-0.4l0.4,1.2l-1.6-1
			l-1.1,0.1l-3-1.3L204,703.3z"/>
		<path class="st0" d="M377.1,722.6l6.6,3.9l3.3,0.5l4.4,2.1l5,4.5l-0.2,3l2.2,0l0.5,2.5l4.5,3.2l-4.2,4.6l-3.8,2l-4.1,0.3l-5.4,3.6
			l-3.6,5.5l-5.7-3l-0.9-2.1l0.8-6l-2.7-7.7l-1.8-2.4l3.1-3.2l2.8-4.7l-1.7-2.5l-0.2-2.9L377.1,722.6z M359.1,713.8l0.4,1.8
			l-3.1,0.9l0.1-1.4L359.1,713.8z M348.8,705.2l2.2,0.4l2.2,2.8l-0.7,1.2l-3.1,0.8l-2.3-4.7L348.8,705.2z M358.3,702.5l3,3.5
			l3.9-1.3l2.4,0.5l2.9,2.7l2.8,0.8l0.3,2.2l-1.4,1.5l-6.4,1.9l-3.5-0.6l-0.5-4.6l-4.1-0.9l-1.5-1.9l0.5-3.3L358.3,702.5z
			 M348.1,698.5l2.4,0.4l5.1,0.5l-4.1,2.7l-4.7-1.4l-6.2,0l1.4-3.2L348.1,698.5z M324,684.6l3.6,4.9l-0.2,1.7l1.9,0l2.8,4.3
			l-3.6,1.1l-2.4-2l-5.2,1l-4.4-7.4l3.9-0.2L324,684.6z M271.8,676.6l0.2,2.5l-2.1,0.9l-1.2,2.3l-0.6-2.8L271.8,676.6z M288.9,670.7
			l2.1,1.2l-0.5,5.8l-2.8,2.4l-4.7-1.3l-3-1.7l-0.6-2.3l1.5-2.2l3.5-1.9L288.9,670.7z M0,0"/>
		<path class="st0" d="M794.6,499.4l1.1-0.1l10-1l0.2,0l9.6-0.9l5.6-0.5l0.8,3.3l1.8,6.2l0.3,0.9l0.5,1.7l1.8,6.2l1.5,5.4l0.9,3
			l0.5,1.6l1.8,6.5l1.3,4.4l0.4,1.4l2.2,7.8l0.2,0.6l1.8,6.2l1.5,3.2l1.6,3.5l2.1,2.4l1.1,3.4l-0.6,1.4l2.8,1.4l-0.7,0.9l-2.8,3
			l0.3,1.8l-0.1,1.9l-1.2,3.7l0.2,2.1l0.4,0.4l2.6,6.3l-0.3,5.6l0.1,3.8l1.9,2.2l0.8,1.9l-11,1.3l-0.2,0l-12.1,1.4l-3.4,0.3
			l-4.5,0.5l-6.8,0.7l-2.2,0.1l-8.5,0.8l-9.8,0.9l-0.5,3.6l2.7,3.1l3,1.5l-0.1,5.1l1.1,0.9l-3.4,5l-6.2,1.7l-3,0.1l4.9-1.9l-3.9-2.9
			l-0.2-3.5l-1.2-4.5l-1.9-0.6l-0.1-0.6l0.4-0.5l-1.7,7.8l0.2,3.3l-6.6,0.3l-1.1-9.2l-0.8-6.9l-0.4-3.1l-1.1-8.5l-0.9-6.9L766,585
			l0.2-9l0-2.2l0.2-7.2l0.2-9.4l0-1.7l0.1-8l0.1-6.6l0.1-5.7l0.2-8.4l0-0.8l0.1-6.3l0.1-3.8l0.1-3.2l0.2-8.4l-2.4-2.6l4.6-0.7
			l8.1-0.6l8.2-0.6l0.3,0L794.6,499.4z"/>
		<path class="st0" d="M638,468.1l4.4-0.1l6-0.1l5.7-0.1l0.4,0l9.4-0.3l1.7-0.1l5.1-0.2l8-0.3l0.6,0l9.5-0.4l4.7-0.2l0.9,0l5.9-0.3
			l7.2-0.4l4.4-0.2l7.5-0.4l1.4-0.1l1.7,2.5l0.5,2.6l-2.5,2.9l-2.9,4.3l-0.7,1.4l1.9-0.1l7-0.5l5.4-0.4l1.5,2.5l-2.1,0.1l1,1.9
			l-2.4,2.2l-2.8,0.7l2.2,2.6l-2.1,1.4l1.1,1.3l-2.8-0.1l0.2,4l-0.3,0.2l-0.4-1.9l-1.6,0.8l1.5,1.3l-1.4,3.5l1.7,0.8l0.3,2.2
			l-2.2,0.7l-0.7,2.5l-2,0.9l1.5,1.8l-1.2,1.8l-2.2,0.9l-1.7-0.7l0.9,3.1l-2.4,0.8l2.3,1.2l-2.5,1l0.5,3.1l0,3l-3.8,1.5l0.4,1.6
			l-2.2,2.6l-2-0.5l2.6,2.4l-2.8,0.7l0,0l1.6,2.3l-4.3,2l1.7,5.3l-2.4-0.4l0.4,2.1l-2.2,1.3l1.9,1.7l-2.1,1l0.4,0.8l-0.3,2.4
			l2.2-1.2l0,4.8l1.4,4.2l-2.5,1l1.9,1.3l-1,1.2l0,0.2l-2.2,0.1l-3.8,0.2l-0.5,0l-13.5,0.5l-14.5,0.4l-5.8,0.1l-5.5,0.2l-5.6,0.1
			l-0.7,0l-6.3,0.1l-0.2,0l-5,0.1l-0.1-6.7l-0.2-7.5l-2.5-1l-5,1.3l-2.2-2.4l0.1-8.1l0-6.7l0.1-8.5l0.1-5.9l0.1-5.5l0.1-12l0-0.4
			l-1-6.4l-0.5-3.2l-1.4-9.2l-0.3-1.6l-1.3-9L638,468.1z"/>
		<path class="st0" d="M304.4,433.6l19.9,2.8l-3.7,26.5l-3.8,27.7l-1.4,10.1l-3,21.2l-2.1,15.1l-1.6,11.4l-1.3,9.3l-4.1,28.9
			l-31.5-4.6l-13.7-2.1l-6.1-3.5l-40.8-23.7l-30.2-18.2l0.7-3.2l2.5-2.3l4.4-0.2l2.2-3.7l-0.5-3.3l-3.3-1l-0.5-1.4l1.6-4.6l-1-1.1
			l0.7-2.7l2.3-0.4l2.8-2.6l1.3-3.7l0.4-6.2l2.6-2.3l0.4-1.6l4.2-1.5l3.2-2.9l-3.6-4.7l-1.3-4.2l-0.2-3.2l-2.6-4.8l0.7-3.5l0.3-2.7
			l2-1.3l0.3-4.4l-0.7-5.2l1.2-9l0.2-6.4l2.9-1l5.4,1.1l2.2,4l1.7,0.1l3.1-4l3.2-17.1l0.8-4.1l23.8,4.4l7.4,1.3l23.3,3.9l13.7,2.2
			L304.4,433.6z"/>
		<path class="st0" d="M102.4,502.3l3.5,6.1l-2.7-1L102.4,502.3z M83.8,490.7l1.8,1.9l-2.3-0.6L83.8,490.7z M104.9,490.6l4.6,3.1
			l0.2,3l-2.7-1.3l-0.5-3.1L104.9,490.6z M77.8,468.4l1.1,2.9l-3.5,0.4l-1.7-3.6L77.8,468.4z M81.1,468.2l6.9,3.9l-3.8,0.1l-2.7-0.9
			L81.1,468.2z M88.9,250.2l15.8,4.7l10.7,3l16.7,4.4l-5.4,21l-9.8,37.9l-1.9,7.1l-1,3.4l-0.9,3.9l-0.3,1.4l-0.3,1.2l-0.4,1.8
			l1.5,2.2l4.9,7.4l3.9,5.8l2.7,4l11.3,17.1l9.4,14.1l10.6,16l20.7,31.2l4,6l17,25.6l-0.7,3.5l2.6,4.8l0.2,3.2l1.3,4.2l3.6,4.7
			l-3.2,2.9l-4.2,1.5l-0.4,1.6l-2.6,2.3l-0.4,6.2l-1.3,3.7l-2.8,2.6l-2.3,0.4l-0.7,2.7l1,1.1l-1.6,4.6l0.5,1.4l3.3,1l0.5,3.3
			l-2.2,3.7l-4.4,0.2l-30.7-3.6l-22.6-2.7l0.9-3.6l-2.2-1.7l-0.4-3l0.9-1.2l-0.2-6.6l-2.8-6.8l-1.4-1.6l-3.1-5l-4-4.1l-1.8-2.9
			l-2.1-1.2l-1.8,1.4l-2.4-1.6l1-2.4l-0.6-3.6l-1.3-2.4l-4.1-0.8l-1.8,0.5l-2.7-1.9l-5-4l-0.6-3.5l-3.5-3.8l-1.6-1.5l-6.6-1.4
			l-2.3-2.1l-6-1.9l-3.8-0.4l-0.4-2.2L69,451l1.8-3.1l0.7-3.5l-0.9-1.9l0.9-1.7l1.2-4.5l-2.1-0.9l-2.3-3.2l2-1.7l-0.6-2.8l-2.2-1.4
			l-2.1-5.3l-2.3-1.5l-0.3-3.7l-1.7-3.1l0.1-2.6l-1.4-1.6l-1.7-5.2l-2.9-3.9l0.4-7.5l3.9-1.5l1.6-4.7l-1.9-3.9l-3.5-0.4l-2.7-5
			l-1.6-2.9l1.3-4.2l-1.1-4.8l1.7-4.8l0.3-1.9l2.3-0.2l-0.4,2.7l-0.2,3.2l1.8,1.1l2.2,3.6l2.6,0.8l-2.2-1.7l0.1-4.6l-2.4-4.3
			l1.1-2.4l-1-2.1l3.1-1.6l2,1.4l2.9-0.2l5.3,2.5l3.1-1.4l0,1.7l0.7-1.7l-2.4,0l1.2-2.3l-3.8,2.3l-2.6-0.4l-1.9-2.8l-2.2,1.9
			l-1.8-1.3l-0.5-2.6l-0.2-0.1l0.5,2.3l-2.6-2.9l0-0.1l-2,0.7l-0.7-1.5l0.8,1.7l-1.6,4.5l0.9,1.6l-2.3,1.1l-2-3.2l-0.9,0.2l-2.5-4.3
			l-2.8-0.4l2.3-3.6l1.7,2.7l-1.7-6.4l-1.3-4.7l-3.2-4.2l-2.4-6.4l-2.7-5l1.6-2.7l-0.2-9l2.5-4.4l0.7-3.1l0.1-5l-1.9-5.3l-0.9-3.1
			l-3.6-5.5l0.6-5l4.7-5.7l0.8,0.7l4.8-8.1l-0.5-1.5l4.8-9.5l0.3-7.5l-1.4-1.7l2.5-5.3l7.3,2.3l5.7,1.6l5.4,1.5L88.9,250.2z"/>
		<path class="st0" d="M392.7,336.8l2.6,0.3l18.1,1.8l6.6,0.6l17.6,1.5l9.5,0.8l3.8,0.3l14.4,1.1l0.6,0l11.3,0.8l-0.4,6.8l-0.1,1.4
			l-0.4,6.9l-0.2,2.4l-0.6,9.3l-0.7,11.5l0,0.2l-0.7,11.6l-0.1,2.3l-0.6,9.3l-0.1,2.2l-0.6,9.3l0,0.2l-0.8,14l-0.2,2.5l-0.4,6.8
			l-0.7,10.6l-20.1-1.6l-1.8-0.1l-19.3-1.4l-24-2.1l-1.4-0.1l-10.4-1.1l-6-0.6l-9.8-1l-19.7-2.4l-1.3-0.2l-18.7-2.3l-13.9-1.9
			l1.8-12.9l1.5-10.5l1-7.2l0.9-9.3l3.4-23l0.5-3.5l0.6-4.3l2.1-14.9l1.6-11.4l1.2-9.2l22.3,2.9l11.8,1.4l9.1,1.1L392.7,336.8z"/>
		<path class="st0" d="M1042.2,266.1l0.9-0.2l9.5-2.2l7.1-1.7l0.6-0.1l5.9-0.9l2.1,7.3l0.6,2.2l0.3,1.1l1.1,4.7l-0.4,2.5l-2.8,1.4
			l-3.4,0.5l-2.6,1.9l-3-3.3l2.4,3.7l-3.6,1.1l0.1,0.1l0.2,0.1l-7.7,1.8l-2.7,3l-0.4-1.5l-1,2l-4.2,4.1l-3.9,2.7l-2-2.5l4-4.1
			l-2.2-3.7l-0.7-4.3l-0.6-3.7l-1.8-10.1L1042.2,266.1z"/>
		<path class="st0" d="M983.6,367.9l-2.1-2.3l-0.6-0.6l2.2-1.3l2.3,1.5L983.6,367.9z"/>
		<path class="st0" d="M1009.8,335l-2.7,5.8l1.4,1.2l0.1,2.8l2,2.2l2.8,2.3l1.3,5.2l2.3,2.4l3.4,3.3l2-0.4l0.9,4.7l2,4.3l-0.4,0.1
			l-0.3,0.1l-5.1,1.1l-7.1,1.3l-0.7-2.6l-0.5-1.9l-1.4-5l-2.3-8.1l-0.7-2.7l-0.4-1.3l-0.6-2.1l-2.4-8.9l3.2-3.8l0,0l0.3-0.1
			L1009.8,335z"/>
		<path class="st0" d="M977.2,733.5l-2.4,6.7l-2.7,3.3l3.6-5.9L977.2,733.5z M926.8,705.3l3.2,5.1l-0.8,0.3L926.8,705.3z
			 M847.7,636.1l0.6,1.4l-3-0.9L847.7,636.1z M940.3,630.4l-2.4-3.3l-1.5-3.5l3.9,6.8L940.3,630.4z M930.7,609.7l3,7.7l-4.1-7.5
			l-0.6-3.8L930.7,609.7z M973.8,737.1l-0.1,0l-1.2,0.8l0,0.1l-1.8-0.6l-3,2.6l-3.9,0.2l-0.9,1.1l-4.3,1.3l-2.5-2.4l0.4-3.3l1.9,2
			l2.8,0.9l1.2-1.5l-2.5-2.1l-3,0.3l-2.8-3.6l-2.4-4.5l1.9-1.1l-2-0.9l-0.4,2l-1.5-2.6l-4.3-2l-1.9,0.6l-3.8-2.2l-2-2.3l-2-6
			l-1.1-3.4l-4.3-1.1l-1.6-3.7l0.2-2.5l-1.4-3.6l2.4-1.8l-3.1,0.5l-0.6,1.2l-2.7-1.8l0,0.2l1.9,1.4l1.4,3.5l-3.8-0.8l-1.6-2.4
			l-2.6-2.6l-4.1-8.2l-3.2-1.9l1.9-1.3l0.7-3.5l3.3-5.1l-2.8-2.2l0.8,2.5l-1.5-0.2l-0.2-2.6l-3.1-1.8l-1.4,2.4l3.1,1.5l-0.4,4.3
			l-2.6-0.9l-2.9-2.6l0.8-3.5l-0.4-4.8l1.7-7.2l-0.1-7l-1.4-0.8l-0.7-4.6l-1.8-2.1l0,0l-0.1-1.7l-2.2-2.2l-5.3,0.1l-1.6-3.7
			l-1.5,0.1l-1.8-2.5l-4.2-2.3l-0.2-3.4l-3.4-0.9l-2.9-3.9l-3.7-2.3l-5.2-2.3l-1.9,0.1l-6.4,1.7l0.4,2.5l-2.1,0.2l2.4,1.6l-4.1,0.3
			l-7.9,5.6l-3.5-0.8l0,0l1.4,1.5l-5.1,1.1l-2.1,0.4l-0.1-2.9l-2.4-3.1l-7.4-4.4l1.5-0.3l2.9,2.1l2.7-0.2l0-0.2l-2.1,0.3l-1.2-2.2
			l-1.6,0.4l-3.4-1.5l0.1,1.6l-6.3-3.2l-9.4-2l-0.1-0.5l6.7-0.5l-3.7-2.2l-3,1.2l-1.5-1.4l-3.1,3.2l-4.5,0.3l-8.5,2.3l5.2-3.2
			l-2-1.2l-1,1.6l-2.4-3.3l-0.4,1l0.4,2.9l-1.9,2.5l-4.4,1.3l0.7-2.5l1.8-0.9l-2.2-1.2l0.1-5.1l-3-1.5l-2.7-3.1l0.5-3.6l9.8-0.9
			l8.5-0.8l2.2-0.1l6.8-0.7l4.5-0.5l3.4-0.3l12.1-1.4l0.2,0l11-1.3l4,7.3l0,0l11-0.7l2.2-0.2l4.5-0.3l1.7-0.1l6-0.4l3-0.2l5.8-0.4
			l0.4,0l0.7,0l3.9-0.3l10.2-0.7l2.4-0.2l2.8-0.2l0.9-0.1l4.7-0.3l0.7,4.1l1.1,1.3l2.7-0.5l0.2-5.4l-1.4-2.3l-0.1-2.7l2.7-2.4
			l7.2,1.9l4.1-0.2l0.5,4.9l-1.5-1.1l-2.4,0.5l3.3,0.5l0.6,2.8l-3.9,1.2l0.3,2l-1.9,1.7l1,1.9l-1.4,2.2l1.7-0.3l-0.2,2.1l2.6,1.7
			l0.6,3.2l1.4,1.6l-1.8,2.9l0,6.4l0.9,1.7l1,2.4l2.3,2l0.2-2.9l-1.2-1.1l-2.7-1.9l-0.6-4l1.9-0.9l-1.1-2.2l2-1.9l-2-3.2l0.5-2.2
			l-3-2l1.5-2.1l-1.5,0.1l0.3-2.8l-1.1-1.1l0.8-3.1l4,0.3l0.7,2.7l4.3,8.6l0.1,1.5l2.8,4.3l-0.1,0l-0.5,0.4l4.1,5.6l0.9,1.9
			l9.1,13.5l3.9,2.9l-2.8-3l0.2,0l4.5,4.7l1.8,3.2l-1.2,1.4l-0.8-4.3l-1.6,5.5l-0.6,0l-1-5.3l-1.6-0.6l0.9-2.3l-2.8-1.9l-0.3,0.1
			l2.3,6l4.7,8.9l5.2,8l0,0.8l3.6,4.1l0.9,2.6l4.2,7.2l-1.1,1l0.1,0.6l3.5,1.6l2.2,3.8l-0.5,0.1l-0.1,0l-0.3,0l-0.2,0l1.6,0.5
			l2.2,9.9l0.5,6.3l0.5,9.2l-0.7,5.9l-2,3.9l-0.3,4.2l1.1,2.5L973.8,737.1z"/>
		<path class="st0" d="M927.3,591.9l-0.8,5.5l-1.2-3.8L927.3,591.9z M927.4,581.8l0.2-0.1l1.2,2.3l-1.9,2.5l-1.2-1.7l0.5-3.1
			L927.4,581.8z M929.5,575.3l-1.1,4.4l-1.5-2.4L929.5,575.3z M930.4,570.9l-0.5,3.8l-0.8-2.8L930.4,570.9z M929.9,566.8l2.1,0.6
			l-1.7,2.8l-1.4-2.3L929.9,566.8z M931.6,560.7l2.1,1.3l-1.5,1.6L931.6,560.7z M925.6,572.8l3,0.3l0.8,1.3l-2.9,1.2l0.6,4.9
			l1.3,0.9l-4.3,0.2l0,0.1l0.7,0.1l1.4,1l-1.2,3.1l1.1,3.6l-2.8-0.7l3,3.1l-0.4,6l-2.3,0.6l-7.2-1.9l-2.7,2.4l0.1,2.7l1.4,2.3
			l-0.2,5.4l-2.7,0.5l-1.1-1.3l-0.7-4.1l-4.7,0.3l-0.9,0.1l-2.8,0.2l-2.4,0.2l-10.2,0.7l-3.9,0.3l-0.7,0l-0.4,0l-5.8,0.4l-3,0.2
			l-6,0.4l-1.7,0.1l-4.5,0.3l-2.2,0.2l-11,0.7l0,0l-4-7.3l-0.8-1.9l-1.9-2.2l-0.1-3.8l0.3-5.6l-2.6-6.3l-0.4-0.4l-0.2-2.1l1.2-3.7
			l0.1-1.9l-0.3-1.8l2.8-3l0.7-0.9l-2.8-1.4l0.6-1.4l-1.1-3.4l-2.1-2.4l-1.6-3.5l-1.5-3.2l-1.8-6.2l-0.2-0.6l-2.2-7.8l-0.4-1.4
			l-1.3-4.4l-1.8-6.5l-0.5-1.6l-0.9-3l-1.5-5.4l-1.8-6.2l-0.5-1.7l-0.3-0.9l-1.8-6.2l-0.8-3.3l2.8-0.3l2.4-0.3l2.1-0.3l6.1-0.8
			l3.6-0.4l0.8-0.1l3.3-0.4l6.4-0.8l4.1-0.5l2.7-0.3l1.5-0.2l8.3-1.2l1.4-0.2l8-1.3l0,0l-0.2,1.7l-2.3,2l-1.8,4.6l0.4,0.7l5.6,3.3
			l1.3,1l1.4,0.1l2.8,0.3l2.6,4.2l1,2l3.9,4.7l0.9,1.4l5.2,2.5l3,3.4l2.9,2.2l2.1,1.1l0.4,0.3l2.1,1.5l0,2.5l2.5,3l2.3,1l0.5,1.4
			l3,0.8l1.8,1.1l0.8,0.8l0.5,2l2.9,4.7l1,3.9l2.5,0.7l1.2,1l3.1,4.2l0.1,3l1.1,2.8l1.8,0.7l1.1,3l2,1.1l-1,1.5l-3.8-1.5l-1.7,1.4
			l2.1,0.7l0.1,3.4l-3.9-1.6l3.3,2.2L925.6,572.8z"/>
		<path class="st0" d="M688.9,278.8l0.3,2.1l0.1,1.9l2.9,2.3l-2,4.8l0.5,2.4l2.1,6.2l3.4,1.9l3.8,1l1.4,3.2l-0.2,0.8l3.6,2.4l1.8,4
			l1.5,0.8l3.1,1.9l0.3,2.2l0.2,2.7l-1.5,4l-1.4,1.5l-0.3,3.8l-6,3.7l-2.6,0.4l-5,1.2l-0.5,2.3l0,0L694,339l2.6,2.1l0.9,2.2l0,0.1
			l-0.1,3.9l-2.4,2.8l-0.3,3.5l-1.4,1.6l-3.3,1l-1,1.5l1,4l-1.1,0.7l-6.2-5.6l-4.5,0l-4.7,0.3l-3.4,0.2l-5.7,0.4l-1.5,0.1l-7.6,0.4
			l-5.5,0.3l-3.6,0.1l-4.3,0.2l-4.8,0.2l-4.3,0.1l-4.8,0.1l-3.2,0l-5.6,0l-5.7,0l-3.4,0L602,359l-2.4-4.4l1-1l0.4-3.2l-1.3-4.1
			l0-2.9l-0.9-0.8l0.6-3.5l-0.9-1.9l-1.2-3.1l-1.8-0.6l-0.7-4.1l1.1-3.1l-1.4-1.8l0.1-2.9l-2.8-2l0.1-1.7l-1.7-2.8l0-1.6l-1.1-1.7
			l0.3-3.8l-1-0.1l-1-1.9l-0.2-1.9l-2.2-2.1l-0.1-1.6l1.8-3.8l0.6-3.8l1.1-0.9l-0.4-3.6l-1.5-1.1l0.6-3.6l-1.4-2.9l2.8,0l7.7,0
			l3.7,0l7.8,0l1.3,0l9.1-0.1l1.1,0l7.9-0.1l3.7-0.1l5.3-0.1l6.2-0.1l2.9-0.1l8.6-0.3l0.5,0l9-0.3l2-0.1l7.1-0.3l6.7-0.3l2.3-0.1
			L688.9,278.8z"/>
		<path class="st0" d="M246.4,98.3l-2.7,12.8l-1.6,7.4l-1.3,6.1l2.7,6.7l1.5,1.9l0.1,2.7l-1.4,0.9l1.9,2.3l-1.9,1.1l2.6,2.6l0.1,1.4
			l3.2,1.6l2.6,4.9l1,3.8l1.4,1.3l-0.2,1.9l4.2,4.2l0.9,3l4.9,0.2l-0.9,3.6l-2.9,6l-1.3,4.6l-1.2,1.5l1.5,1.7l-0.6,3.3l-1.6-0.3
			l-1.6,1.7l0.7,3l-1.8,2.7l1.7,0.1l1.8,3.2l1.4-0.3l7.3-4.4l0.2,2.1l1.7,0.8l-0.4,5.2l0.8,4.1l1.8,4.4l1.6,1.8l-1,5l1.8,2.5
			l1.9-0.7l1.9,1.7l1.1,6.9l-0.3,2l3.2,2.6l1.1-2.7l5.7,1.1l1.4,1.1l2.4-2.8l3.4,1.8l4.4-0.4l0.6,1.6l4-0.5l2,0.7l1.4-4.4l1.9-0.8
			l2.4,3.9l-0.3,1.2l2.9,3.2l-2,12.9l-2,12.7l-0.8,4.9l-1.2,7.8l-2.2,13.4l-2.2,13.5l-8.9-1.4l-11.6-1.9l-1.1-0.2l-16.1-2.9
			l-20.1-3.6l-4.6-0.9l-14.5-2.9l-21.2-4.5l-16.7-3.7l-0.2-0.1l9.9-43.8l0.9-4.2l1-0.8l1.5-2.6l-0.2-2.8l1.8-1.4l-0.9-2.7l-4.2-2.5
			l1-4.8l1.8-1.3l3.1-4.8l3.1-1.8l1.8-2.1l0.2-2.3l1.5-1.2l2.9-4.5l3.7-5.7l2.3-2.4l-0.8-3.9l-3.9-3.7l-1.4-4.1l-0.2-2.9l1.1-1.7
			l-1.4-5.1l0.8-2l0.7-3l3.4-15.1l0.8-3.4l0.6-2.7l3.5-15.7l0.4-1.7l4.8-20.5l0.9-3.9L246.4,98.3z"/>
		<path class="st0" d="M705.6,304.4l9.7-0.6l1.7-0.1l8.5-0.4l0.7,0l8.3-0.5l3.2-0.2l1.3-0.1l7.8-0.6l2.1-0.2l7.6-0.6l-0.1,5.1
			l1.8,3.9l1.7,1.9l2.9,7.6l1,1.9l0.5,6.4l0.4,4.5l0.3,3.5l0.4,4.1l0.7,7.3l0.6,6.6l0,0.4l0.7,8.8l0.6,7.1l0.7,7.4l0.3,3.5l0.3,3.4
			L768,387l-0.3,2.8l2.8,6.6l0,1.4l1,2.9l-2.8,4.9l0.3,1.4l-2.1,1.6l0.4,1.3l-3.1,4.2l-1.6,0.4l0.1,0.7l1.7,1.7l-3.1,7.6l1.5,2.3
			l-2.4,3.9l0.7,2.3l1.7,1.7l-0.4,0.9l-4,0.9l-1.5,1.4l-1.2-0.4l-1.2,1.1l-0.5,3.4l2,2.8l-1.2,2.3l-1.6-0.2l-7.9-3.3l-0.1,0.1
			l-3.1,2l-1.5,2.7l0.9,2.2l-2.8-2l-1.1,1.5l-1.4-0.7l-2.7-5.5l-0.1-2.3l1.2-1.8l-2.4-4.3l0-0.2l0-3l-3.4-1.7l-0.2-1.2l-3.7-2.5
			l-1.9,0.9l-1.4-2.3l-4.5-3.1l-1-1l-2.4-2.6l0.1-4.2l1.3-3.7l0.2-0.3l1.4-3.5l0.1-3l0.9-0.9l0-1.2l-3.4-1.7l-3.7-1l-1.8,2.7
			l-2.5-1.5l-1.6-7.7l-1.1-1.9l-3.6-2.6l-1.9-1l-3.3-4l-2.7-2.2l-1.3-1.9l-1.5-2.2l-0.1-2.7l-1.3-2.4l-0.4-4.4l0.1-1.3l1.4-3.5
			l1.1-0.7l-1-4l1-1.5l3.3-1l1.4-1.6l0.3-3.5l2.4-2.8l0.1-3.9l0-0.1l-0.9-2.2L694,339l0.7-2.5l0,0l0.5-2.3l5-1.2l2.6-0.4l6-3.7
			l0.3-3.8l1.4-1.5l1.5-4l-0.2-2.7l-0.3-2.2l-3.1-1.9l-1.5-0.8l-1.8-4l-3.6-2.4l0.2-0.8L705.6,304.4z"/>
		<path class="st0" d="M797.7,316.8l2.4-0.3l7.2-0.8l1.9-0.2l7.3-0.9l0.6,1.7l0.5,4.4l0.3,2.8l0.5,4.1l0.1,0.5l0.8,7l0.2,1.8
			l0.6,5.2l0.5,4.1l0.7,5.8l0.1,1.1l0.8,8.1l0.2,2.3l0.6,5.1l0.5,4.2l0.1,1.2l0.6,5.8l0.6,5.3l-0.9,2.1l0.6,3.4l1.7,1l-0.2,2
			l-4.2,1.1l-3.4,2.3l-2.8-0.9l-2.3,1l0.9,3.2l0.1,1.7l-3.8,4.3l-1.8,3.2l-1.1-0.4l-1.9,3.2l-0.5,4.7l-1,0.3l-3.8,0.1l-1.9-1
			l-1.6-3.2l-2.5,1.9l-0.4,2.1l-0.1,3.2L791,423l0.1-1.5l-2.2-0.2l-1.5-2.2l-3.2,2.1l-1.7,3.8l-4.1-1.9l-0.7-0.5l-3.2-0.8l-1.2,1
			l-1.7-1.7l-0.3,3.9l-1.9-1.6l-4.7,0.3l0.6,2.5l-2.5,0.4l-1.5-2.3l3.1-7.6l-1.7-1.7l-0.1-0.7l1.6-0.4l3.1-4.2l-0.4-1.3l2.1-1.6
			l-0.3-1.4l2.8-4.9l-1-2.9l0-1.4l-2.8-6.6l0.3-2.8l1.3-2.5l-0.3-3.4l-0.3-3.5l-0.7-7.4l-0.6-7.1l-0.7-8.8l0-0.4l-0.6-6.6l-0.7-7.3
			l-0.4-4.1l-0.3-3.5l-0.4-4.5l-0.5-6.4l1.9,1.3l4.2,0.4l5.5-2.8l2-1.5l5.9-0.6l5.8-0.6l3.2-0.3L797.7,316.8z"/>
		<path class="st0" d="M488.3,371.5l1.7,0.1l11.4,0.6l0.4,0l11,0.5l0.3,0l11.1,0.4l0.1,0l9,0.3l2.3,0.1l6.9,0.2l4.5,0.1l4.6,0.1
			l6.9,0.2l2.2,0l9.1,0.2l9.1,0.1l2.2,0l6.9,0.1l4.5,0l4.6,0l4.5,0l9,0l0.6,0l4.5,3.7l1.8-1l2.4,2l-0.1,2.5l-1.5-0.5l-2,3.3l-1,2.4
			l2.7,3l1.8,1.1l-0.4,2l2.6,2.7l3.5,1l-0.1,1.2l0,1.9l0.1,5.3l0,2.9l0,7l0,2.4l0.1,8.8l0,0.6l0.1,9.8l0,0.5l0.1,7.8l0,0.7l0.1,7.5
			l0,1.6l-8.2,0.1l-1.4,0l-7,0.1l-2.4,0l-5.5,0l-3.7,0l-0.8,0l-11,0l-4.7,0l-8.4-0.1l-6.6-0.1l-7.1-0.1l-6.5-0.1l-4.9-0.1l-4.1-0.1
			l-9.6-0.3l-9.6-0.3l-1.8-0.1l-9.7-0.4l-1.8-0.1l-11.4-0.5l-6.6-0.3l-2.5-0.1l-10.2-0.5l-9.9-0.5l-0.3,0l0.7-10.6l0.4-6.8l0.2-2.5
			l0.8-14l0-0.2l0.6-9.3l0.1-2.2l0.6-9.3l0.1-2.3l0.7-11.6l0-0.2l0.7-11.5L488.3,371.5z"/>
		<path class="st0" d="M829,385.6l2.3-0.8l4,1.5l2.3,3.7l0.2,1.3l3.8,1l3-0.3l4.5,2.9l1.2-0.1l2.4-2l5.3,1.5l2.3-0.3l2.2-3.2
			l2.8-1.2l2.1,4.7l3.3,1.3l1.7,2l0.5,4.6l-0.2,3l2,1.6l1.5,3.1l2,2.2l2.1,2.8l5,4.4l3.3-0.1l-6.1,7.4l-4.7,3.3l-0.2,0.2l-3,2.6
			l0.3,1.9l-2.8,2.3l0.1,2.2l-3.9,1.6l-0.9,3.1l-6.5,3l-4.3,2.3l-5.3,1l-1.7,0.1l-4.5,0.5l-0.7,0.1l-10.9,1l-0.2,0l-4,0.1l-6.3,0.4
			l-0.4,0.1l-2.9,0.5l-7.4,0.7l-3.9,0.2l-4.9,0.2l-4.4,0.1l-3.1,0.8l-4.3,0l-6.2,0.8l-1.1,0.1l-4.6,0.5l-6.4,0.7l-1.1,0.1l-8-0.4
			l0.8,4.8l-9.2,0.7l-0.6,0l-6.3,0.5l-0.2,0l-0.2,0l-10.8,0.8l-1.5,0.2l1.7-3.7l1.8,1.7l1.4-2.5l-0.6-1.7l1.5-1.9l0.2-4.3l-0.8-1
			l-0.9-2.2l1.5-2.7l3.1-2l0.1-0.1l7.9,3.3l1.6,0.2l1.2-2.3l-2-2.8l0.5-3.4l1.2-1.1l1.2,0.4l1.5-1.4l4-0.9l0.4-0.9l-1.7-1.7
			l-0.7-2.3l2.4-3.9l2.5-0.4l-0.6-2.5l4.7-0.3l1.9,1.6l0.3-3.9l1.7,1.7l1.2-1l3.2,0.8l0.7,0.5l4.1,1.9l1.7-3.8l3.2-2.1l1.5,2.2
			l2.2,0.2L791,423l2.8-2.5l0.1-3.2l0.4-2.1l2.5-1.9l1.6,3.2l1.9,1l3.8-0.1l1-0.3l0.5-4.7l1.9-3.2l1.1,0.4l1.8-3.2l3.8-4.3l-0.1-1.7
			l-0.9-3.2l2.3-1l2.8,0.9l3.4-2.3l4.2-1.1l0.2-2l-1.7-1l-0.6-3.4l0.9-2.1l1.4-1.3L829,385.6z"/>
		<path class="st0" d="M707.5,656.1l1.8,1.2l-0.8,2.6l-2.6-2.1L707.5,656.1z M742.7,653.9l1,1.8l-3.3,0L742.7,653.9z M692,649.8
			l4.3,1.9l-3,2.1l-4.3-2.2L692,649.8z M752.6,634.9l-2.6,0.3l2-1.8L752.6,634.9z M746,646.3l-0.3-0.2l-0.1,0l-3.9,1.6l1.9,2.5
			l3.1,1.5l-0.8,1.2l4.4,0l3.3,2.2l1.1-1.3l2.9,4.1l-0.2,2.4l-2,1.8l-1.5-0.7l-3.5,3.7l3.1-5.6l-1.3-2.1l-3,1.1l-1.4-3.6l-2.6-1.5
			l-5.2,0.2l0.4-1.7l-2.6-0.9l-1.2,1.1l-3.6-2.2l0.1-2.7l-1.4-0.8l0.4,2.9l-1.4,1.5l1.1,1.2l3.2,0.4l0.4,1.8l-1.7,3l1.2,1.7
			l-0.5,1.1l-2.9,2.3l-3.5-5.7l-1.1,2.4l0-0.4l0-0.1l0.1-0.5l0.1-0.1l-4.4-1.1l0.1,2.1l-1.6,0.3l-0.6,2.7l-4.3,0.5l-1.5-1.2l3-2.1
			l-2.8-1l-0.8-1.5l-2,4.1l-2-1.1l0-2.8l-3.1-2.7l0.8-3.8l-2.2,2.8l-2.2-1.6l-3.2,1.1l-0.2-3l-1.7,0.2l-0.3-3l-5.1,0.4l0.6-2.4
			l-3.3,0l-0.2,1l-4.1,2.7l1.5,0l-0.1,2.2l-4.3,2.4l-7.4-1l-7.7-3l-5.4-1.6l-7.1,0.2l-5.9,1l-2.1,1.2l-2.1-2.9l1.7-1.7l2.9-5
			l0.1-5.1l-1.3-2.6l0.5-1.6l1-1.1l-1-2.5l2.4-3.7l1.5-5.1l1-4.3l-1.1-4.1l-1.1,0.3l-2-3.3l-0.8-5.6l-2.7-1.9l0.8-3.1l-2-3.7
			l-3.2-3.6l-0.7-5.8l-0.1-5.2l-0.2-8l-0.1-5l-0.1-3.7l5-0.1l0.2,0l6.3-0.1l0.7,0l5.6-0.1l5.5-0.2l5.8-0.1l14.5-0.4l13.5-0.5l0.5,0
			l3.8-0.2l2.2-0.1l-0.1,2.8l1.7-2.4l0.6,2.7l-1.4,1.4l0.2,2.7l1.8,0.3l-1.9,2.1l2.5,1.7l-0.6,0.4l-0.3,2.9l2.5,0l-0.4,2.3l2.1,0.5
			l-1.9,3.2l-2.7,0.5l-0.8,2.1l2.5,0.1l0.5,0.1l0,0.2l-0.9,2.7l-2.4,1.6l-1.2,2.5l-2.1,0.8l0.7,2.5l-1.4,0.5l-0.4,3.1l-2.1-0.6l2,2
			l-2.2,1l0.4,4.5l-1.7-1l1.6,3.3l-3.1,0.9l1.5,1.5l-0.7,2l1.5,1.3l-1.6,1.9l10.4-0.5l2.6-0.1l5.3-0.3l5.9-0.3l0.4,0l4.5-0.3l2-0.1
			l9.6-0.6l2.4-0.2l-2,9.1l0.8,2.1l3.1,3.2l2.1,6l2.2,1.1l-2.3,0.8l-2.2,2.6l-2.9,1.8l1.6,1.8l1.5-0.8l0.7,2.2l2.3-0.1l0.4-3.3l3-2
			l0.9,4.7l2.2,0.1l-3.3,3.8l-4.1-0.1L746,646.3z"/>
		<path class="st0" d="M1104.8,268.7l1.5,2.3l-2.8,1.1L1104.8,268.7z M1092.9,269.2l3.3,2l-5.2,1.8l0.1-2.8L1092.9,269.2z
			 M1090.3,261.7l-1.8,0.8l-0.1,2.3l-1.5,1.1l-1,2.8l-3.4,2.1l-1.4-4.1l-1.3-0.1l-0.9-0.8l-2.2-1.2l-2.6-5.1l-2.4-0.2l-5.6,1.7
			l-5.9,0.9l-0.6,0.1l-7.1,1.7l-9.5,2.2l-0.9,0.2l-8.3,1.8l-0.2,0l-0.4-0.9l0.3-11.7l0.2-6.5l4.6-1l1.8-0.4l8.9-1.9l3.3-0.7l6.7-1.5
			l0.6-0.1l11.4-2.6l0.5-1.2l0.2-0.2l2.9-2.5l0.3-1.5l3.9-1.4l2,3.9l3.9,0.9l-0.8,1.6l-4,2.6l0.4,2l-1.5,1.2l-1,1.3l-0.4,0.2
			l0.3,0.5l0,0l1.1,2.1l2.3,0.3l1.9-1l1,0.4l3.8,3.2l-0.8,2.4l3.8,1.2l0.9,3l2.6,1l2.9-0.3l4.6-3.5l-4.1-5.7l3.5,2.2l2,4.3l-0.7,2.8
			l-7.2,2.9l-1,2.6l-3.3,1.5L1090.3,261.7z"/>
		<path class="st0" d="M997.5,360.3l-1.2,3.8l0.3-5.1L997.5,360.3z M1021.1,381.7l-4.8,1.6l-0.1,0l-5.1,3.1l0.1-3.2l1.4-1.5l0-0.1
			l-1.5,0.8l-0.6-2.6l-1.7,1.5l2.4-4.3l-1.8,1.4l-0.6-1.6l0.8-3.8l-1.7,5.1l-2.4-1l0.5,2l-6.9-5.3l1.2-2.1l-0.8-1.7l2.1-0.8l2.7,1
			l1.5-3.5l-1.6-1.8l1.1-1.4l-1.3,2.2l1.5,1.1l-0.9,2.8l-3.5-2.2l-3.8-0.9l1-3l2.4,2.2l-1-2.4l1.3-2.4l-1.5,1.5l-0.6-2.3l0.5-3.4
			l2.3-4.8l-1.9,4.1l-1.3-0.6l-0.5,2.5l-1.5-2.3l2.1-6.6l5.5-1.3l-4.2,0.5l0.5-4.7l-2,0.8l0.1,2.9l-2.6,2.4l0-2.8l-2.3,2.5l0.8,1.3
			l-1.1,3.8l-2.3-0.5l-0.9,1.1l0.1,0l0.9-0.2l2.8,2.6l-1.9,0.8l2.9,1.1l-2,4.6l1,3.8l1.2,4.7l3.5,3.3l-0.4,1.9l-5.2-2.9l-2.2-5
			l0.6,3.2l0.3,1.2l4.8,2.8l4.8,5l0.4,2.3l-3.1-2.3l-5.8-2.2l-0.5,1.7l-3.4-3.7l1.2,3.1l-1.8-0.3l-3.2-3.6l-2.9,2.9l-2-2.9l2.9-6.3
			l0.6-3.4l1.7-2.6l-2.3-1.5l-2.2,1.3l-4.8-2.4l-2.8,0.1l-1.7-1.6l1-2.3L970,357l-2.3-0.1l-0.8,0.3l-3-4.1l-1.5-1.3l0.7-1.6
			l-3.7,0.4l-3.5-1.4l-1.3,2.3l-1.4-0.1l-1.9,0.8l-0.2,2.9l-3.9,0.2l-3.1-1.4l-2.6,5.1l-2.2-0.7l-3.4,4.7l-3.7,4l-2.2-13.6l1.7-0.3
			l9.2-1.7l2.4-0.4l8.5-1.6l0.8-0.1l4.8-0.9l12.5-2.4l0.2,0l4.8-1l4.3-0.9l4.2-0.9l4.3-0.9l6.5-1.4l0.1,0l1.9-0.4l6.9-1.5l2.4,8.9
			l0.6,2.1l0.4,1.3l0.7,2.7l2.3,8.1l1.4,5l0.5,1.9l0.7,2.6l7.1-1.3l5.1-1.1l-0.2,5.6l-2,1.6L1021.1,381.7z"/>
		<path class="st0" d="M1108.3,186.6l1.2,2.7l-2.1-1.1L1108.3,186.6z M1113.5,180.4l2.6,1l-1.6,4.6l-2.4-1.8L1113.5,180.4z
			 M1089.2,198.9l0.1-3.2l0,0l-0.2,3.8l-1.1,2.6l0.8-1l0.5-0.8l2.6,5.5l-1.1,1.4l-1.9-4.7l0.5,2.8l-1.5-1.7l-3.2,2.7l-1.1,3.8
			l1.9,2.5l-2.7,1.6l-0.3,5.1l-1.8,1.3l-0.5,7.2l-3.4-0.8l-0.3-2.5l-4.4-3.1l-0.7-4.2l-2.2-6.3l0,0l-3.8-12.6l-4.1-13.2l-4.3-12.7
			l1.1-1.4l3.6,0.9l-0.7-3.2l3.5-0.4l-2.4-2.9l2-4.9l2.5-2.5l-1-1.4l2.1-3.2l-1.9-3.1l0.5-3.6l-1.3-0.9l0.7-4.5l1.9-2.4l-0.5-4.2
			l-0.4-3.2l8-23.3l3.4-0.1l1.4,4.6l3,1l4.6-3.3l0.2-1.2l3.5-1.1l-0.3-1.8l2.2-0.7l6.1,2.5l3.8,2.4l8.9,28.4l1.6,6.8l4.1,0.8
			l3.5-0.3l-0.7,2.7l2,2.1l-0.2,3.1l3.8,3.2l0.4-1.8l2.5,0l3.9,4.5l2.2,3.4l-2.5,5.3l-5.6,2l-0.2,3l-1.9-0.4l-0.4,2.1l-2.2-2.5
			l-0.8,1.4l0.4,4.5l-2.4-2.2l0,4.7l-1.9-3.4l-4.5-0.4l1.5,1.3l-2.5,2.7l-0.5-2.5l-1.9,3.1l2.1,4.3l-6.8-3l0.4-3l-2.4-2.5l0.1-1.7
			l0,0l-0.3,2.4l1.4,0.5l0.3,2.7l-3.2,1.8l1.7,1.6l-0.7,3.2l-0.1,4.8l0.8,0.6l-1.7,3.7l-3-0.1l-0.1-1.4l-1-1.4l-0.4,6.8l-1.4-1.2
			l-1.6,1.7l-1-4.2l-0.7,2.3l-0.6,1.5l1.7,1.4l-0.4,2.1l-3-5.5L1089.2,198.9z"/>
		<path class="st0" d="M784.9,229.6l-1.9-0.8l1.1-1.5L784.9,229.6z M790.9,210.6l1.2,3.7l-2.3,1L790.9,210.6z M805.6,207.9l5.4,2.9
			l4.8,0.1l2.1,2.9l3.8,0.1l2.8,1.7l3.9,1.1l1.4-0.4l2.4,2l0.1,1.7l1.9,3.8l-2.1,0.1l0.4,3.5l2.2,1.6l1.4,3.7l-0.2,5.4l0.2,4.8
			l-3,1.9l-0.7,3l0.2,3l-1.7,1.8l-3.1,0.3l-1,2.4l0.7,6.2l4.3,1.8l0.5-0.1l2.4-4.2l1,0.1l3-7l3.8-1.4l2.1-1.9l3.8,1.5l2.6,3.9
			l1.1,3.7l2.2,6.5l1.7,7l2.4,4.9l-0.8,2.4l0.2,7.1l-2.5,0.2l-1.4-1.3l-1.9,2.2l-0.4,4.5l-0.3,1.8l-3.2,2.4l-1.2,4l-0.1,3.7
			l-4.3,7.2l-0.2,1.5l-5.4,0.9l-2.3,0.4l-9.3,1.5l-0.8,0.1l-7.9,1.2l-0.6-1.7l-7.3,0.9l-1.9,0.2l-7.2,0.8l-2.4,0.3l-5.4,0.5
			l-3.2,0.3l-5.8,0.6l-5.9,0.6l3.7-4l1.9-5.9l2-3.8l1.3-4.9l0.3-9.4l-1-5.8l-1.2-3.4l-4.6-9l-2-4.7l1.6-4.6l-2.1-5.7l2-3.9l1.9-5.3
			l0-4l-0.6-4.9l2.9-2.3l-0.3-3.1l2.3-2.1l2.5,0l2.8-6.5l1.3,3.2l-1,4.9l0.4,2.8l0.9,0.1l1.6-6.1L794,237l1.2-3.1l0.7-6.8l-0.7-2.5
			l0.2-1.9l2.8-2.6l1.9-0.3l3-1.9l-2.1-0.1l-1.9-3.3l2.8-4.6L805.6,207.9z M808.6,206.8l4,0.7l-2.4,1.3L808.6,206.8z M826.5,201.7
			l-5.3-0.4l3-2.3l-1-1.6l2.5,0l2.4,2.5L826.5,201.7z M812.9,187.1l1.3,0l-0.7,3.2l-2-1.7L812.9,187.1z M732.8,179.9l1.8,4.4l0.1,5
			l3.8-5.1l3.6,0.2l4.2,0.2l3.5,1.8l1.3,2.3l4.9,5.5l3.9-0.4l1.6-1.2l4,2.2l1.1-1.2l2.2,1.6l2.8-4l5.6-3.8l4.9-1l7-0.5l4.2-2.5
			l5.1-0.9l-1.1,2.3l0.5,5.3l3.8,0.7l3.5-1.5l0.9,1.8l4.3-2.9l1.7,1.7l2,4.6l-0.4,2.4l1.8-0.6l1.2,2.1l3.5,2.5l-3.9,0.5l-1.9,0.2
			l-0.3,0l-8-0.9l-1.2,3l0.1,2.8l-5.2-3.9l-8-1.6l-1.6,0.4l-3,3.8l-3.1,0.1l-0.7,1.4l-2.8-0.9l-4.5,1.7l-0.7,3.6l-1.6,0.9l-4.3,3.3
			l2.7-5.6l-4.6,0.2l-1.3,4.1l-3.2-0.6l-2.2,2.4l-1.5,3.2l-2.6,7.1l-2.7,4.1l0.3,1.4l-0.5-0.1l-2.6-2.4l1.4-3.9l-4.5,0l1.4-4.1
			l-0.9-1.5l0.7-3.1l-1.3-1.2l-4-1.2l-1.5-1l0.1-2.6l-5.3-1.1l-2.6-0.9l-2.7,0.4l-4.7-1.2l-1.1-0.5l-1.9-1l-15.7-3.2l0,0.3l0-0.3
			l-3.6-0.8l-1.2-2.7l-1.2-1.8l-1.5-0.1l-0.8-0.6l-1.2-0.6l7-3.4l2.3-2.5l1.7-1.5l6.7-1.1l3.1-1.9l2-2.4l3.3-1.2l0.7-1.9l4.4-3.7
			l0.3,2.6L732.8,179.9z M744.3,169.3l2.7,1.7l-4.4,0.8l0.4,1.1l-4.9,4.3l-2.8,6.1l-0.7-3l-3.4-0.6l-0.4-2.6l1.9-1.7l1.4-2.3
			l3.6-2.4L744.3,169.3z M728.5,153.2l4-1.8l-4.4,5.2l-5.4,2.9l1,0.7L720,162l-1.2-2.2L728.5,153.2z"/>
		<path class="st0" d="M625.1,143.1l2.2-0.3l1.5,1.6l6.7,0.4l1,3l5.8-0.9l0-1.2l4.5-1.5l2.1,0.3l6.5,2.1l1.7-0.1l-1.3,2.1l3.7,0.3
			l2.7,5.8l1.8-0.8l0-2.8l3.7-0.3l1,2.4l3.8,1.5l1.7,2.2l2.7,0.1l-0.1,1.7l5.6-1.3l3.7-3l2.5-1.6l2.8,3.8l10.8-1.1l4.8,3l1.8-1.1
			l3.6,0.4l-7,4.9l-8.1,3.1l-5.1,3l-5,4.5l-7.8,9.4l-5.5,5.2l-5.3,4.3l1.5,2.1l0,0l-1.5-1.1l-0.1,0l-1.2,0.9l-0.1,0l-0.5,0.3l0,0.1
			l0,1.2l0,0l-1.6,0l0.2,6.5l0.3,6.9l-0.9,3.8l-5.6,2.7l-3.2,5.3l-0.8,2.3l0.1,1.8l2.1,0.1l2.5,3.3l-1.7,3.9l-0.2,2.3l-0.5,3.5
			l0.6,5.7l-0.5,3.1l1.4,0.8l3.6,3.8l4.4,0.6l1.5,2.3l3,1.1l2.4,1.2l2.1,4.3l5.9,4.2l2.6,1l2.9,3.5l0.7,3.1l-0.1,3l1.1,3l-7.5,0.4
			l-2.3,0.1l-6.7,0.3l-7.1,0.3l-2,0.1l-9,0.3l-0.5,0l-8.6,0.3l-2.9,0.1l-6.2,0.1l-5.3,0.1l-3.7,0.1l-7.9,0.1l-1.1,0l-9.1,0.1l-1.3,0
			l-7.8,0l-3.7,0l-7.7,0l0-9.3l0.1-9.2v0l0.1-9.2l0-2.3l0-4.7l0-4.5l0-7.7l-0.3-1.5l-4.2-2.5l-2.6-4.4l0-1.6l3.4-2.6l1.7-5l-0.2-2.3
			l0.3-2.5l-0.7-5.7l-2.5-4.2l-0.8-3.8l-0.3,0l0-4.4l0.7-3.6l-1.4-2l0-3.8l0.2-2.3l-0.3-6.9l-0.8-4.6L579,165l-2.2-8l0.1-0.5
			l0.5-3.4l-0.8-5.8l1.2-3.8l-1-1.9l-1.2-6.4l14.5,0.1l19.1,0l3,0l-0.1-10.1l3.4,0.3l2.3,2l2.6,10.7l-0.1,2.8l1.9,1.6L625.1,143.1z"
			/>
		<path class="st0" d="M682.9,356.7l6.2,5.6l-1.4,3.5l-0.1,1.3l0.4,4.4l1.3,2.4l0.1,2.7l1.5,2.2l1.3,1.9l2.7,2.2l3.3,4l1.9,1
			l3.6,2.6l1.1,1.9l1.6,7.7l2.5,1.5l1.8-2.7l3.7,1l3.4,1.7l0,1.2l-0.9,0.9l-0.1,3l-1.4,3.5l-0.2,0.3l-1.3,3.7l-0.1,4.2l2.4,2.6l1,1
			l4.5,3.1l1.4,2.3l1.9-0.9l3.7,2.5l0.2,1.2l3.4,1.7l0,3l0,0.2l2.4,4.3l-1.2,1.8l0.1,2.3l2.7,5.5l1.4,0.7l1.1-1.5l2.8,2l0.8,1
			l-0.2,4.3l-1.5,1.9l0.6,1.7l-1.4,2.5L738,460l-1.7,3.7l-1.4,0.1l-1.1,0.1l0.2,4.3l-1.4,0.8l1.8,1.4l-3.4,0.3l1.5,1.7l0.9,1.5
			l-1.7,1.3l-0.4,2.3l-5.4,0.4l-7,0.5l-1.9,0.1l0.7-1.4l2.9-4.3l2.5-2.9l-0.5-2.6l-1.7-2.5l-1.4,0.1l-7.5,0.4l-4.4,0.2l-7.2,0.4
			l-5.9,0.3l-0.9,0l-4.7,0.2l-9.5,0.4l-0.6,0l-8,0.3l-5.1,0.2l-1.7,0.1l-9.4,0.3l-0.4,0l-5.7,0.1l-6,0.1l-4.4,0.1l-11.4,0.2
			l-0.1-4.5l0-2.6l-0.1-6.2l0-1.6l-0.1-7.5l0-0.7l-0.1-7.8l0-0.5l-0.1-9.8l0-0.6l-0.1-8.8l0-2.4l0-7l0-2.9l-0.1-5.3l0-1.9l0.1-1.2
			l-3.5-1l-2.6-2.7l0.4-2l-1.8-1.1l-2.7-3l1-2.4l2-3.3l1.5,0.5l0.1-2.5l-2.4-2l-1.8,1l-4.5-3.7l-2.3-1.5l0.5-1.8l-3.1-3.6l-0.1-0.1
			l-1.2-1.3l-2-5.6L602,359l7.8,0.1l3.4,0l5.7,0l5.6,0l3.2,0l4.8-0.1l4.3-0.1l4.8-0.2l4.3-0.2l3.6-0.1l5.5-0.3l7.6-0.4l1.5-0.1
			l5.7-0.4l3.4-0.2l4.7-0.3L682.9,356.7z"/>
		<path class="st0" d="M761.4,502.2l0.4,0l3.5-0.3l2.4,2.6l-0.2,8.4l-0.1,3.2l-0.1,3.8l-0.1,6.3l0,0.8l-0.2,8.4l-0.1,5.7l-0.1,6.6
			l-0.1,8l0,1.7l-0.2,9.4l-0.2,7.2l0,2.2l-0.2,9l0.6,5.2l0.9,6.9l1.1,8.5l0.4,3.1l0.8,6.9l1.1,9.2l-1.8,2l-1.6-1.7l-4.6,1.4
			l-3.2-1.8l-9,4l-1.3-1.8l0.4,1.8l-4.2,3.6l-2.2-1.1l-2.1-6l-3.1-3.2l-0.8-2.1l2-9.1l-2.4,0.2l-9.6,0.6l-2,0.1l-4.5,0.3l-0.4,0
			l-5.9,0.3l-5.3,0.3l-2.6,0.1l-10.4,0.5l1.6-1.9l-1.5-1.3l0.7-2l-1.5-1.5l3.1-0.9l-1.6-3.3l1.7,1l-0.4-4.5l2.2-1l-2-2l2.1,0.6
			l0.4-3.1l1.4-0.5l-0.7-2.5l2.1-0.8l1.2-2.5l2.4-1.6l0.9-2.7l0-0.2l-0.5-0.1l-2.5-0.1l0.8-2.1l2.7-0.5l1.9-3.2l-2.1-0.5l0.4-2.3
			l-2.5,0l0.3-2.9l0.6-0.4l-2.5-1.7l1.9-2.1l-1.8-0.3l-0.2-2.7l1.4-1.4l-0.6-2.7l-1.7,2.4l0.1-2.8l0-0.2l1-1.2l-1.9-1.3l2.5-1
			l-1.4-4.2l0-4.8l-2.2,1.2l0.3-2.4l-0.4-0.8l2.1-1l-1.9-1.7l2.2-1.3l-0.4-2.1l2.4,0.4l-1.7-5.3l4.3-2l-1.6-2.3l0,0l2.8-0.7
			l-2.6-2.4l2,0.5l2.2-2.6l-0.4-1.6l3.8-1.5l0-3l-0.5-3.1l2.5-1l-2.3-1.2l2.4-0.8l-0.9-3.1l1.7,0.7l2.2-0.9l1.2-1.8l-1.5-1.8
			l12.6-0.8l1.7-0.1l6.3-0.4l3.3-0.3l3.9-0.3l4.2-0.3l0.8-0.1L761.4,502.2z"/>
		<path class="st0" d="M280.6,105.3l32.5,5.9l16,2.7l9.2,1.4l21.9,3.2l21.9,3l18.5,2.3l18.7,2.1l18.5,1.9l17.7,1.6l-0.8,9.6
			l-0.5,6.4l-0.8,10.3l-1.3,15.7l-0.2,1.8l-1.5,18.1l-0.2,2.6l-0.6,6.9l-0.7,8.8l-0.1,1.7l-1.4,17.7l-0.8,5.7l-18.3-1.7l-1-0.1
			l-17.5-1.6l-4.4-0.5l-30.7-3.8l-6.3-0.8l-6.9-0.9l-21.9-3.1l-16.8-2.3l-6.2-1.2l-1.6,8.8l-0.7,5.1l-2.9-3.2l0.3-1.2l-2.4-3.9
			l-1.9,0.8l-1.4,4.4l-2-0.7l-4,0.5l-0.6-1.6l-4.4,0.4l-3.4-1.8l-2.4,2.8l-1.4-1.1l-5.7-1.1l-1.1,2.7l-3.2-2.6l0.3-2l-1.1-6.9
			l-1.9-1.7l-1.9,0.7l-1.8-2.5l1-5l-1.6-1.8l-1.8-4.4l-0.8-4.1l0.4-5.2l-1.7-0.8l-0.2-2.1l-7.3,4.4l-1.4,0.3l-1.8-3.2l-1.7-0.1
			l1.8-2.7l-0.7-3l1.6-1.7l1.6,0.3l0.6-3.3l-1.5-1.7l1.2-1.5l1.3-4.6l2.9-6l0.9-3.6l-4.9-0.2l-0.9-3l-4.2-4.2l0.2-1.9l-1.4-1.3
			l-1-3.8l-2.6-4.9l-3.2-1.6l-0.1-1.4l-2.6-2.6l1.9-1.1l-1.9-2.3l1.4-0.9l-0.1-2.7l-1.5-1.9l-2.7-6.7l1.3-6.1l1.6-7.4l2.7-12.8
			l22.8,4.7L280.6,105.3z"/>
		<path class="st0" d="M1018.9,422.4l0.5-0.1l3.7,7.9l6.3,8.7l-4.5-3.9l-1.9-4.8l-1.3-1.4L1018.9,422.4z M1017.5,428.4l3.2,4.2
			l-2.3-0.1l-5.5-3.9l0.7,1.9l4.1,3.1l-2,1.2l-3-1.9l2.6,2.5l-1.2,0.3l-4.7-1.6l3.7,2.1l-3.8,1l1.8,0.1l-1.8,2.1l-4-0.8l-1.1-2
			l0-4.1l-2.3-1.3l-3.6-0.4l3.4,0.5l1.9,2.8l-0.2,2.6l2.4,3.9l0,1.8l6-2.9l0.9,1.2l3.8-2.5l2.3-0.4l2.1,7.9l-2.5,0.3l3.3,0l-0.7-5.9
			l3.4-1.7l1.5,0.8l1.8,6.7l-2.3,1.6l-1-1.3l0.5,1.6l-2.2,5l-2.1,2.5l-2.2,0.2l-3.3-1.5l-1.4,1.8l-3.2-3.1l2-0.2l-0.5-1.8l-2.7,2.2
			l2,3l-9-0.8l-2.7-1.5l-0.1,0.2l3.4,2.5l7.7,1l0.5,1.7l2.1-1.5l0.8,2.5l-3.1,2.1l2.3,0l-0.6,2.2l-3.8,3.7l-3.4-1.5l-0.1-1.2
			l-2.2-0.8l-1.8,2.1l0.4-0.1l1.4-1l3.8,3.3l4.8,0.5l-0.2-2l5.1-1.9l-0.5,1.7l3.9-1.3l-2.9,4.5l-0.8,2.7l-1.4,0.3l-1.5-2.2l-1,2.8
			l-4.2,0.6l-4.1,2.2l-1.7-2.2l1.2,1.4l-3.9,5.7l-3.3,3l-4,4.8l0.5-0.1l0.1,0.1l-2.4,4.3l-0.8,2.8l-1.5-3.5l1.2,5.7l-1,2.5l-3.1-0.1
			l-5.6,1.5l-2.7,1.4l-0.3-0.2l-0.1-0.1l-2-1.4l-10.7-7.7l0,0l-9.6-7l-0.3-0.2l-5.6-3.8l-5.1,0.8l0,0l-8.4,1.2l-5.2,0.8l-5,0.8
			l-0.2-3.1l-1.5-1.6l-1.7-1.8l-2.7,1.3l-0.3-2.8l-6.3,0.6l-0.8,0.1l-8.6,0.9l-2.3,0.2l-2,0.2l-5.3,0.5l-2.9,0.6l-4.6,1.9l-3.7,2.6
			l-2.8,0.7l-2.3,1.1l-2,1l0,0l-8,1.3l-1.4,0.2l-8.3,1.2l-1.5,0.2l-2.7,0.3l-4.1,0.5l-0.1-5.9l1.5-1.8l1.9,0.4l1.9-1.6l-0.2-3
			l1.1-1.7l0.2,0.1l3.5-3.2l2.3-0.5l3.5-0.3l4.7-4.2l-0.1-0.5l0,0l3.5-2.5l2.5-0.4l0.8-4.3l0,0l0,0l1.7,0.4l0.5-1.9l2.8-2.5l0.8,0.6
			l0.1,1.9l2.2-0.6l1.5-2.8l3.8-2.8l3.2,1l2.5-4.8l0.2-0.6l3.6-3.4l0.3-5.4l6.8-0.7l9.5-1.1l1.3-0.1l4.7-0.7l3.6-0.4l8.1-1.1
			l0.5-0.1l6.5-1.1l4.3-0.7l0.8-0.1l2.7-0.5l2.6-0.5l1.7-0.3l7.1-1.3l1.3-0.2l5.8-1.1l2.8-0.6l5.8-1.1l3-0.6l2.7-0.6l9.7-1.9
			l2.7-0.6l5.1-1l0-0.2l7.7-1.6l1-0.2l3.7-0.8l3.9-0.8l1.8-0.4l1.6,3.5l3.1,2.8l2.9,5.2l-4.3-4.9L1017.5,428.4z"/>
		<path class="st0" d="M575.6,135.4l1.2,6.4l1,1.9l-1.2,3.8l0.8,5.8l-0.5,3.4l-0.1,0.5l2.2,8l2.2,5.2l0.8,4.6l0.3,6.9l-0.2,2.3
			l0,3.8l1.4,2l-0.7,3.6l0,4.4l0.3,0l0.8,3.8l2.5,4.2l0.7,5.7l-0.3,2.5l0.2,2.3l-12.3-0.1l-13.9-0.3l-0.6,0l-13.2-0.4l-5.2-0.2
			l-13.2-0.5l-3-0.1l-11.7-0.6l-27.4-1.5l0,0l-17.4-1.2l-1-0.1l-19.3-1.5l0.7-8.8l0.6-6.9l0.2-2.6l1.5-18.1l0.2-1.8l1.3-15.7
			l0.8-10.3l0.5-6.4l0.8-9.6l19.5,1.6l16.1,1.1l9.2,0.5l23.1,1.2l11.6,0.5l9.3,0.3l18.5,0.5L575.6,135.4z"/>
		<path class="st0" d="M496.4,291.7l19.9,1l12.8,0.5l5.4,0.2l14.6,0.4l3.6,3.2l3,1.2l2.3,2.1l1.6-0.1l1.7-2.4l4.5,0.3l2.9,0.1
			l3.4-0.4l2.8,1.8l2.8,1l4.1,1.6l2.1,1.5l1.3,3.4l3.6,0.9l1,0.1l-0.3,3.8l1.1,1.7l0,1.6l1.7,2.8l-0.1,1.7l2.8,2l-0.1,2.9l1.4,1.8
			l-1.1,3.1l0.7,4.1l1.8,0.6l1.2,3.1l0.9,1.9l-0.6,3.5l0.9,0.8l0,2.9l1.3,4.1l-0.4,3.2l-1,1l2.4,4.4l1.1,1.6l2,5.6l1.2,1.3l0.1,0.1
			l3.1,3.6l-0.5,1.8l2.3,1.5l-0.6,0l-9,0l-4.5,0l-4.6,0l-4.5,0l-6.9-0.1l-2.2,0l-9.1-0.1l-9.1-0.2l-2.2,0l-6.9-0.2l-4.6-0.1
			l-4.5-0.1l-6.9-0.2l-2.3-0.1l-9-0.3l-0.1,0l-11.1-0.4l-0.3,0l-11-0.5l-0.4,0l-11.4-0.6l-1.7-0.1l-12.9-0.8l0.6-9.3l0.2-2.4
			l0.4-6.9l0.1-1.4l0.4-6.8l-11.3-0.8l-0.6,0l-14.4-1.1l-3.8-0.3l-9.5-0.8l0.9-10.4l0.4-4.6l0.3-3.6l0.7-8.1l1.4-16.2l0.9-10.5
			l10.6,1l9.7,0.7l4,0.3l13.7,0.9L496.4,291.7z"/>
		<path class="st0" d="M1065.3,198.3l3.8,12.6l0,0l2.2,6.3l0.7,4.2l4.4,3.1l0.3,2.5l-0.7,1.6l1-1.2l2.5,1.4l-0.8,4.9l-3.9,1.4
			l-0.3,1.5l-2.9,2.5l-0.2,0.2l-0.5,1.2l-11.4,2.6l-0.6,0.1l-6.7,1.5l-3.3,0.7l-2.7-2.8l1.1-4.6l-1.1-3.9l-0.1-1.9l-1.2-9l0.7-1
			l-0.1-2.6l1.3-2.4l0.5-10.7l-1-4.3l3.4-1.6l1-1.8l2.7-3.5l0.2-2.2l-2.8-3.8l1.4-4.9l-0.8-2.6l0.8-7.2l1.2-1.2l2.9,0.9l0.7-2
			l4.3,12.7L1065.3,198.3z"/>
		<path class="st0" d="M1012.6,346.1l-0.1,0l-0.1-0.1l-3.1-2.3l0.1,0l-1-2.8l-0.2-0.6l1.7-4.6l5.2-3.9l0.9-3.1l-0.1,0l1.3-1.8
			l4.3-3.7l-5.4-4.1l-2.8-1.6l-0.8-3.1l-2.7-0.8l-0.2-0.4l-0.5-4.5l1.8-2.9l-1.9-2.2l2.2-4l-0.5,0.2l1.9-5.5l2.2-2.6l7.4,2.5
			l2.9,0.9l0.4,0.2l6.8,2.1l-0.5,5.6l-0.6,3.9l-1.3,0.9l0-2.5l-0.5,1.4l-0.4,2.6l-0.6,3.1l1.2,0.7l4.6,0l1.1,2.6l0.1,5.5l-1.3-0.2
			l1.4,0.3l0.7,7.8l-1.1-3l-0.7,5.3l1,0.9l-2.7,4.4l-1.4,0.4l0,0.1l1.3,5l-4.4,3.1l0.7,0.9l-1.6,7.3l-1.2,1.9l-2.1,0.5l0.5-4.3
			l-0.8-2.2l-4-0.1l-4.1-1.2L1012.6,346.1z"/>
		<path class="st0" d="M450.4,449.7l-1,13.4l-0.8-0.1l-0.9,11.9l-0.6,8.4l-0.2,3.1l-0.9,11.7l-0.5,6.1l-0.4,5.5l-0.9,11.6l0,0.3
			l-1,12.7l-0.6,6.8l-0.4,4.8l-1,11.4l-0.9,11.6l-0.9,11.6l-0.2,2.3l-5.9-0.4l-8.9-0.7l-5.7-0.5l-1-0.1l-18.4-1.6l-1.6-0.1
			l-24.1-2.5l-8.5-0.9l-5.4-0.6l-0.8,3.5l2.2,2.4l-17.2-2l-20.3-2.5l-1.5,11.9l-18.9-2.5l4.1-28.9l1.3-9.3l1.6-11.4l2.1-15.1l3-21.2
			l1.4-10.1l3.8-27.7l3.7-26.5l13.9,1.9l18.7,2.3l1.3,0.2l19.7,2.4l9.8,1l6,0.6l10.4,1.1l1.4,0.1l24,2.1l19.3,1.4L450.4,449.7z"/>
		<path class="st0" d="M241.4,287l4.6,0.9l-5,26.1l-4.6,23.2l-1.1,5.5l-1.9,9.6l-4.4,22.8l-0.5,2.7l-2.1,11.2l-2.8,14.3l-3,15.9
			l-0.8,4.1l-3.2,17.1l-3.1,4l-1.7-0.1l-2.2-4l-5.4-1.1l-2.9,1l-0.2,6.4l-1.2,9l0.7,5.2l-0.3,4.4l-2,1.3l-0.3,2.7l-17-25.6l-4-6
			l-20.7-31.2l-10.6-16l-9.4-14.1L125,359.4l-2.7-4l-3.9-5.8l-4.9-7.4l-1.5-2.2l0.4-1.8l0.3-1.2l0.3-1.4l0.9-3.9l1-3.4l1.9-7.1
			l9.8-37.9l5.4-21l12.1,3.1l0.7,0.2l21.5,5.2l22.3,5.1l0.2,0.1l16.7,3.7l21.2,4.5L241.4,287z"/>
		<path class="st0" d="M1031.2,307.1l0.1,2.6l-2.5,2.1l0.4-4.1L1031.2,307.1z M1043.8,303.8l-5.7,3.1l-0.7-0.5l0.3-0.6l-2.3,0.2
			l0,1.8l-3.3,0l0.7-3.7l0.6-1.6l3.2-0.5l0.1-2.5l2.6-1.9l2.3,1l-1-1.5l5.4-0.9l0.8-1.9l7.4-1.8l2.5-1.1l5.2-5.7l-2,4.7l-2.1,2.6
			l2.2,0l1.9-3.3l3.4-2.2l1.8,1.1l3.2-3.4l0.8,0.7l-9.4,7.8l-1.5-0.3l-2.2,2.9l-1.7-0.1l-2.5,2.6l-2.7,0.5l-2.1,1.9l-1.8-0.1
			L1043.8,303.8z M923.5,263.5l2.1,0.7l-0.5,1.9L923.5,263.5z M1035.3,299.6l0.3,1.8l-2.1,1l-1.3,3l0.6-5.1l0-1l-0.1-4.4l-0.9-2.9
			l-2.8-3l-0.1,0.1l2.6,4.3l1,3.7l-6.8-2.1l-0.4-0.2l-2.9-0.9l-7.4-2.5l-1.5-1.6l-4.7-0.4l-2.4-2.8l-0.6-4l-2.3-2.2l-2.3,0.2
			l-2.8-3.2l-2.3,0.5l-11.9,2.5l-0.8,0.2l-7.9,1.7l-7.1,1.5l-0.8,0.2l-12.4,2.5l-2.7,0.6l-8.8,1.6l-1.9,0.4l-11.8,2.3l-2.8,0.4
			l-10.6,1.9l-2.9,0.5l-1.2-7.1l3.7-3.2l3.7-4.4l3.2-2.4l1.1-3.5l3.3-3.2l-1.9-4.2l0.2-1.9l-3.8-1l-0.8-4.7l4.6-2.5l6.2-2.4l8.9-1.5
			l4.6-0.2l4.1,2l3.5-1.7l4.2-1.2l3.1,0.2l4.7-3.1l1.6-2.4l3.3-3.6l3.3-0.9l0.2-4.1l-0.2,0l-0.1,0l-1.4-3.6l-1.3-0.2l2.9-2.2
			l-1.9-1.8l0.8-2.7l-2.3,2.1l-2.7-2.2l1.1-2.6l7.3-7.1l1.1-3.3l7-10.6l4.9-4.8l4.4-1.3l12.8-3l12.4-3.4l0.5,4.6l1,0.6l0.2,5.1
			l0.8,1.2l0.5,0.3l1.5,2.9l0.7,4.3l-1,2.2l0.1,4.1l2.6,5.8l0.7,1.4l-0.5,3.1l2.4-0.1l1.5,1.6l1.4,6.2l2,9.7l1.4,5.1l-0.2,6.5
			l-0.3,11.7l0.4,0.9l0.2,0l1.8,10.1l0.6,3.7l0.7,4.3l2.2,3.7l-4,4.1l2,2.5L1035.3,299.6z"/>
		<path class="st0" d="M899.9,300.5l1.5,9.2l0,0.3l1.6,9.4l0,0.2l1,5.9l0.2,1.3l0.9,5.6l-2.7,2l1.9,2.9l-0.3,1.9l0.9,1.9l-1.1,3.8
			l-0.3,0.8l-0.1,3.4l0.1,3.3l-1.1,1.9l0.3,3.4l-1.7,3.4l-1.6,2.1l-1.3,2.4l-4.5,3.9l-1.7-1.6l-2,2.1l-0.1,2.1l-2.1,0.2l-0.7,1.6
			l-0.5,1l0.5,2.2l0,4.7l-2.4,1.6l-0.1-1.6l-2.4-2.1l-1.7,2l-0.4,3.4l-1.3,1.5l1.6,4.7l-0.8,0.5l-1.4,0.5L878,396l-3.6,1.5l-1.9,0
			l-1.7-2l-3.3-1.3l-2.1-4.7l-2.8,1.2l-2.2,3.2l-2.3,0.3l-5.3-1.5l-2.4,2l-1.2,0.1l-4.5-2.9l-3,0.3l-3.8-1l-0.2-1.3l-2.3-3.7l-4-1.5
			l-2.3,0.8l-2.7-1.7l-1.4,1.3l-0.6-5.3l-0.6-5.8l-0.1-1.2l-0.5-4.2l-0.6-5.1l-0.2-2.3l-0.8-8.1l-0.1-1.1l-0.7-5.8l-0.5-4.1
			l-0.6-5.2l-0.2-1.8l-0.8-7l-0.1-0.5l-0.5-4.1l-0.3-2.8l-0.5-4.4l7.9-1.2l0.8-0.1l9.3-1.5l2.3-0.4l5.4-0.9l0,0l0.2,0l0.1,0l0.2,0
			l6,2.2l4.2,2.2l2.4-2.2l2.4,2l-5.9,2l-0.4,0.1l-0.1,0l3.2,0.3l1.6-1.4l2.8,0.2l0,0.2l3.6,1.2l2.9-1.6l6.2-3.3l0.9,0.2l4.4-0.2
			l4.4-4.6l3.4-4.1l5.1-3.2l8.8-4.8L899.9,300.5z"/>
		<path class="st0" d="M511.5,453.2l1.8,0.1l9.7,0.4l1.8,0.1l9.6,0.3l9.6,0.3l4.1,0.1l4.9,0.1l6.5,0.1l7.1,0.1l6.6,0.1l8.4,0.1
			l4.7,0l11,0l0.8,0l3.7,0l5.5,0l2.4,0l7-0.1l1.4,0l8.2-0.1l0.1,6.2l0,2.6l0.1,4.5l1.3,9l0.3,1.6l1.4,9.2l0.5,3.2l1,6.4l0,0.4
			l-0.1,12l-0.1,5.5l-0.1,5.9l-0.1,8.5l0,6.7l-0.1,8.1l-5.7-1.7l-0.7-1.6l-1.8,0.5l-2.4-3.1l-4.1-2l-1.4-0.7l-2,2.3l-5.3-0.3l-1-1.4
			l-3.5,1.8l-1.9,0.9l-1.9-1.3l-3.4,0.8l-2,2.6l-4.4,0.9l-1-1.4l-4.5-1.8l0.9-1.3l-1.5-0.5l-2.6,2.1l-2.1-0.6l-1.4-2.7l-0.2,0.1
			l-3.3,4.1l-0.3,1.9l-2.1-2.2l0.4-2.7l-2.7,0.3l-1.4,1.8l-1.9-0.6l-0.4-2l-1.7,0.4l-2.7-2.4l-4,3.6l-2.3-1.1l0.8-2.7l-3-0.4
			l-1.1-3.8l-0.7,0.8l-4.2-1.2l-1.3,2l-1.4,0.5l-2.6-2.6l-3.4,0.5l-4-2.2l-5.1-0.2l-0.4-3.3l-3.5-3.4l-0.5,2.2l-1.6-0.6l-2.3-0.6
			l-2.5,0.9l-3.1-3.5l-1.7-1.9l-1.6,0.3l0.1-5l0.3-7.6l0.2-4.1l0.3-6.4l0.2-5.3l0.3-7l0.2-4.7l0.4-11.9l-11.4-0.5l-8.6-0.4l-2.8-0.1
			l-11.4-0.6l-8.6-0.6l-2.7-0.2l-17.7-1.2l1-13.4l20.1,1.6l0.3,0l9.9,0.5l10.2,0.5l2.5,0.1l6.6,0.3L511.5,453.2z"/>
		<path class="st0" d="M100,138.8l2.9,0l1.7,0.2l3.1,3.7l0.4,6.5l-0.5,3.2l-0.4,2.1l1.8,1.7l6.4,3.4l6.6-0.9l2.4-0.9l5.2,0.9
			l1.3,1.1l3.9,1.9l-0.1,1.4l5.2,0.7l5.4-1.2l2.8,1.9l5,0.5l4.5-1.3l2.5,0l3.7,0.4l2.2-1.3l2.5,0.8l5.6,1l2.9-1.1l17.8,4.3l0.3,0.1
			l6.7,1.6l2.2,0.5l10.1,2.4l1.4,4.1l3.9,3.7l0.8,3.9l-2.3,2.4l-3.7,5.7l-2.9,4.5l-1.5,1.2l-0.2,2.3l-1.8,2.1l-3.1,1.8l-3.1,4.8
			l-1.8,1.3l-1,4.8l4.2,2.5l0.9,2.7l-1.8,1.4l0.2,2.8l-1.5,2.6l-1,0.8l-0.9,4.2l-9.9,43.8l-22.3-5.1l-21.5-5.2l-0.7-0.2l-12.1-3.1
			l-16.7-4.4l-10.7-3l-15.8-4.7l-17.7-5l-5.4-1.5l-5.7-1.6l-7.3-2.3l-1.8-3.5l0.4-6.3l2.6-5.9l0.2-2.3l-1.2-2.4l0.1-3l2.2-2.5
			l4.3-7.5l5.7-7.7l3.1-6.1l4-10.3l1.7-3.4l3.5-10.3l1.7-1.8l1.1-3.4l4-8.8l2.3-9.8l0.8-4.3l1.7-1.3l0-6.1l1.6,1.8l2.7,0.2l3,1.4
			l2-0.7L100,138.8z"/>
		<path class="st0" d="M916.8,293.6l10.6-1.9l2.8-0.4l11.8-2.3l1.9-0.4l8.8-1.6l2.7-0.6l12.4-2.5l0.8-0.2l7.1-1.5l7.9-1.7l0.8-0.2
			l11.9-2.5l2.3-0.5l2.8,3.2l2.3-0.2l2.3,2.2l0.6,4l2.4,2.8l4.7,0.4l1.5,1.6l-2.2,2.6l-1.9,5.5l0.5-0.2l-2.2,4l1.9,2.2l-1.8,2.9
			l0.5,4.5l0.2,0.4l2.7,0.8l0.8,3.1l2.8,1.6l5.4,4.1l-4.3,3.7l-1.3,1.8l-1.1,3.1l-1.3,0.8l-3.7,2.5l-3.3-0.2l-0.3,0.1l0,0l-3.2,3.8
			l-6.9,1.5l-1.9,0.4l-0.1,0l-6.5,1.4l-4.3,0.9l-4.2,0.9l-4.3,0.9l-4.8,1l-0.2,0l-12.5,2.4l-4.8,0.9l-0.8,0.1l-8.5,1.6l-2.4,0.4
			l-9.2,1.7l-1.7,0.3l-5.7,1l-3,0.5l-10.1,1.7l-2,0.3l-1-6.4l-0.2-1.4l-0.6-3.8l-1-6.3l-0.4-2.1l-0.7-4.3l-0.9-5.6l-0.2-1.3l-1-5.9
			l0-0.2l-1.6-9.4l0-0.3l-1.5-9.2l-0.6-3.4l3.4-2.1l9.9-8l1.2,7.1L916.8,293.6z"/>
		<path class="st0" d="M1079.8,267.6l0.5,4l-1.6-0.3L1079.8,267.6z M1082.6,270.7l-1.1,1.4l-1.5-5.6l1.3,0.1L1082.6,270.7z
			 M1074.3,259.4l2.6,5.1l2.2,1.2l-0.2,2l-2.5-2.4l-0.8-0.1l0,3.1l1.4,4.6l-0.6,2.9l-6.7,3.6l0-0.7l0.4-2.5l-1.1-4.7l-0.3-1.1
			l-0.6-2.2l-2.1-7.3l5.6-1.7L1074.3,259.4z"/>
		<path class="st0" d="M936.9,554.3l1.5,1.3l-2.7,3.3L936.9,554.3z M937.5,548l2.1-0.1l2.6,1.8l-2.1,1.8l-0.9,2.8l-1.6-2.6
			L937.5,548z M935.4,547.3l1.4,0.2l1.3,5.8l-2.5-1.7l-1.4-2.5L935.4,547.3z M954.3,533.4l-2.3,3.2l-0.9-2l1.1,4l1.2-0.1l-1.9,3.9
			l-5.3,3.2l-1.9,1.2l-2.1-2.6l0.6,2.5L939,546l0.5,1.6l-4.4-0.5l-1,1.6l-0.8-2l0.5,3l0.1,1.2l0.1,0.1l-0.1,0.3l-0.4,0.6l2.4,1.9
			l-0.9,3.9l-2.5,1l-0.1,1.5l-3.6-0.6l-1.1-2.8l-0.1-3l-3.1-4.2l-1.2-1l-2.5-0.7l-1-3.9l-2.9-4.7l-0.5-2l-0.8-0.8l-1.8-1.1l-3-0.8
			l-0.5-1.4l-2.3-1l-2.5-3l0-2.5l-2.1-1.5l-0.4-0.3l-2.1-1.1l-2.9-2.2l-3-3.4l-5.2-2.5l-0.9-1.4l-3.9-4.7l-1-2l-2.6-4.2l-2.8-0.3
			l-1.4-0.1l-1.3-1l-5.6-3.3l-0.4-0.7l1.8-4.6l2.3-2l0.2-1.7l2-1l2.3-1.1l2.8-0.7l3.7-2.6l4.6-1.9l2.9-0.6l5.3-0.5l2-0.2l2.3-0.2
			l8.6-0.9l0.8-0.1l6.3-0.6l0.3,2.8l2.7-1.3l1.7,1.8l1.5,1.6l0.2,3.1l5-0.8l5.2-0.8l8.4-1.2l0,0l5.1-0.8l5.6,3.8l0.3,0.2l9.6,7l0,0
			l10.7,7.7l2,1.4l0.3,0.6l-4.8,3.9l-3.3,5.2l-2.2,5.7l-0.1,3.5l-2.3-1.2l2.5,3.4l-1.5,1.1l-3.1-0.6l3,1l-2.7,3.4l-2-0.3l-4.8,7.3
			l-2.7,0.9L954.3,533.4z"/>
		<path class="st0" d="M486.5,212.6L486.5,212.6l27.5,1.5l11.7,0.6l3,0.1l13.2,0.5l5.2,0.2l13.2,0.4l0.6,0l13.9,0.3l12.3,0.1l-1.7,5
			l-3.4,2.6l0,1.6l2.6,4.4l4.2,2.5l0.3,1.5l0,7.7l0,4.5l0,4.7l0,2.3l-0.1,9.2v0l-0.1,9.2l0,9.3l-2.8,0l1.4,2.9l-0.6,3.6l1.5,1.1
			l0.4,3.6l-1.1,0.9l-0.6,3.8l-1.8,3.8l0.1,1.6l2.2,2.1l0.2,1.9l1,1.9l-3.6-0.9l-1.3-3.4l-2.1-1.5l-4.1-1.6l-2.8-1l-2.8-1.8
			l-3.4,0.4l-2.9-0.1l-4.5-0.3l-1.7,2.4l-1.6,0.1l-2.3-2.1l-3-1.2l-3.6-3.2l-14.6-0.4l-5.4-0.2l-12.8-0.5l-19.9-1l-16.5-1l-13.7-0.9
			l-4-0.3l-9.7-0.7l-10.6-1l1-12.6l0.1-0.7l0.8-9.3l0.7-7.6l0.1-1l0.8-10.4l0.9-11.3l0.8-5.7l1.4-17.7l0.1-1.7l19.3,1.5l1,0.1
			L486.5,212.6z"/>
		<path class="st0" d="M772.3,457.2l1.1-0.1l6.4-0.7l4.6-0.5l1.1-0.1l6.2-0.8l4.3,0l3.1-0.8l4.4-0.1l4.9-0.2l3.9-0.2l7.4-0.7
			l2.9-0.5l0.4-0.1l6.3-0.4l4-0.1l0.2,0l10.9-1l0.7-0.1l4.5-0.5l1.7-0.1l5.3-1l4.3-0.5l10.2-1.3l3.2-0.4l4.6-0.7l6.6-1l1.1-0.2
			l2-0.3l6.6-1.5l3.8-0.5l-0.5,0.7l-0.3,5.4l-3.6,3.4l-0.2,0.6l-2.5,4.8l-3.2-1l-3.8,2.8l-1.5,2.8l-2.2,0.6l-0.1-1.9l-0.8-0.6
			l-2.8,2.5l-0.5,1.9l-1.7-0.4l0,0l0,0l-0.8,4.3l-2.5,0.4l-3.5,2.5l0,0l0.1,0.5l-4.7,4.2l-3.5,0.3l-2.3,0.5l-3.5,3.2l-0.2-0.1
			l-1.1,1.7l0.2,3l-1.9,1.6l-1.9-0.4l-1.5,1.8l0.1,5.9l-6.4,0.8l-3.3,0.4l-0.8,0.1l-3.6,0.4l-6.1,0.8l-2.1,0.3l-2.4,0.3l-2.8,0.3
			l-5.6,0.5l-9.6,0.9l-0.2,0l-10,1l-1.1,0.1l-8.1,0.6l-0.3,0l-8.2,0.6l-8.1,0.6l-4.6,0.7l-3.5,0.3l-0.4,0l-8.7,0.7l-0.8,0.1
			l-4.2,0.3l-3.9,0.3l-3.3,0.3l-6.3,0.4l-1.7,0.1l-12.6,0.8l2-0.9l0.7-2.5l2.2-0.7l-0.3-2.2l-1.7-0.8l1.4-3.5l-1.5-1.3l1.6-0.8
			l0.4,1.9l0.3-0.2l-0.2-4l2.8,0.1l-1.1-1.3l2.1-1.4l-2.2-2.6l2.8-0.7l2.4-2.2l-1-1.9l2.1-0.1l-1.5-2.5l0.4-2.3l1.7-1.3l-0.9-1.5
			l-1.5-1.7l3.4-0.3l-1.8-1.4l1.4-0.8l-0.2-4.3l1.1-0.1l1.4-0.1l1.5-0.2l10.8-0.8l0.2,0l0.2,0l6.3-0.5l0.6,0l9.2-0.7l-0.8-4.8
			L772.3,457.2z"/>
		<path class="st0" d="M566.1,730.6l1.2,3.7l-2.1-3.8L566.1,730.6z M566.1,730.6l-1.4-2.7l0-3.8L566.1,730.6z M564.7,724.1l-0.4-0.2
			l0.3-8.6l0.5-1.3l0.1-2.5l2.7-5.5l0.6,0.1l-3.1,7.8l-0.8,4.7L564.7,724.1z M569.7,702.3l2.1-2.7l-3,5.6L569.7,702.3z M576.8,693.2
			l-2.8,3.8l0.4-2.1L576.8,693.2z M577.6,692.7l0.2-0.5l1-2.1l1.9-0.2l4.3-3.3l2.9-0.7L577.6,692.7z M626.6,659.5l-1.4,1.4l-7.4,5.2
			l6.1-5.5L626.6,659.5z M619.2,663.3l-2.2,0.5l-2,5.1l-3.8,3.4l-2.5,1l-4.3,2.6l-2.3-0.5l-3.4,1.3l-0.6,1.9l6-2.5l-14.7,7.5
			l8.3-4.5l0.2-1.2l-4.4,1.3l-3.7-1l-1.6-0.8l-0.9-0.9l-0.2,2.6l-3-1l-0.3-1.6L582,676l-0.1,0l0,0l0,0.5l1.1,2.8l5,4.1l-5.9,3.1
			l-3.2-3.3l-1.7,0.8l1.6,2.5l-0.2,1.1l-0.3,1.5l-2.9,2.5l-2-2.1l-5.3,3.6l1.9,0.4l-0.7,2l0.1,0.1l3.8-3.7l-0.1,2.1l-2.6,3.4l0,0
			l-0.1,0.2l-1.1,1.9l-1.9-1.6l-5.1,1l2.4,0l1.6,4.1l1.4-0.2l-1.7,3.6l-2.2,6.3l-2.2,1.2l1-3.4l-3.5,2.3l-2.8-2.6l1.6,3.4l-2.7,0.1
			l3.1,0.2l2.4,1.3l2.9-0.8l-1.2,6.5l-1.6,0.4l-0.3,4.6l1.8,1.8l0.6,4.1l0.2,4.5l1,0.5l2.2,5.7l-0.4,1.9l2.5,1.2l-1.1,2.9l-3,1.5
			l0,1.8l-3.5-1.3l-4.4-4l-3.7-0.9l-8,0.3l-4.6-2.9l-1.4-1.8l-3.4-1l-2.2,0.4l-3-3.4l-7.3-1.8l0.5-1.3l-1.8-2.6l-2.1-7.2l-4.1-4.8
			l0.6-4.1l-0.6-2.4l-1.1-2l0.7-3.7l-2.6-4.3l-2.8-0.6l-3.8-3.9l-1.1-4.9l-1.3-0.3l-2.2-4.2l-2.8-1.4l-1.8-2.4l-2.1-8.1l-2.2-2
			l-0.9-4.5l-2.3-3.2l-0.2-3.7l-2.4-2.5l-0.4-1.8l-4.7-3.5l-1.2-2.5l-4.5-2.3l-0.7-2.8l-3.3-4.1l-1.9,0.7l-5.1-0.9l-8.1-0.8
			l-4.5-2.6l-1.8,3l-2.9-0.8l-3.6,0.8l-3.7,5.7l-1.9,4.3l-0.5,3.8l-2.4,0.5l-4.2,5.3l-6.4-2.4l-2.6-3.2l-3.8-0.9l-1.5-2.3l-4.1-1.2
			l-2.4-1.5l-3.8-4.8l-1.7-0.3l-3.7-3.6l-3.2-7.5l0.4-7.1l-3.4-6l0-3.2l-2.1-3.4l-4.9-5.2l-3.9-1.8l-3.3-3.8l-0.9-2.7l-3.6-2.6
			l-1.8-3.5l-2.6-2.9l-4.7-3l-2.9-7.1l-3.1-1.7l-2.2-2.4l0.8-3.5l5.4,0.6l8.5,0.9l24.1,2.5l1.6,0.1l18.4,1.6l1,0.1l5.7,0.5l8.9,0.7
			l5.9,0.4l0.2-2.3l0.9-11.6l0.9-11.6l1-11.4l0.4-4.8l0.6-6.8l1-12.7l0-0.3l0.9-11.6l0.4-5.5l0.5-6.1l0.9-11.7l0.2-3.1l0.6-8.4
			l0.9-11.9l0.8,0.1l17.7,1.2l2.7,0.2l8.6,0.6l11.4,0.6l2.8,0.1l8.6,0.4l11.4,0.5l-0.4,11.9l-0.2,4.7l-0.3,7l-0.2,5.3l-0.3,6.4
			l-0.2,4.1l-0.3,7.6l-0.1,5l1.6-0.3l1.7,1.9l3.1,3.5l2.5-0.9l2.3,0.6l1.6,0.6l0.5-2.2l3.5,3.4l0.4,3.3l5.1,0.2l4,2.2l3.4-0.5
			l2.6,2.6l1.4-0.5l1.3-2l4.2,1.2l0.7-0.8l1.1,3.8l3,0.4l-0.8,2.7l2.3,1.1l4-3.6l2.7,2.4l1.7-0.4l0.4,2l1.9,0.6l1.4-1.8l2.7-0.3
			l-0.4,2.7l2.1,2.2l0.3-1.9l3.3-4.1l0.2-0.1l1.4,2.7l2.1,0.6l2.6-2.1l1.5,0.5l-0.9,1.3l4.5,1.8l1,1.4l4.4-0.9l2-2.6l3.4-0.8
			l1.9,1.3l1.9-0.9l3.5-1.8l1,1.4l5.3,0.3l2-2.3l1.4,0.7l4.1,2l2.4,3.1l1.8-0.5l0.7,1.6l5.7,1.7l2.2,2.4l5-1.3l2.5,1l0.2,7.5
			l0.1,6.7l0.1,3.7l0.1,5l0.2,8l0.1,5.2l0.7,5.8l3.2,3.6l2,3.7l-0.8,3.1l2.7,1.9l0.8,5.6l2,3.3l1.1-0.3l1.1,4.1l-1,4.3l-1.5,5.1
			l-2.4,3.7l1,2.5l-1,1.1l-0.5,1.6l1.3,2.6l-0.1,5.1l-2.9,5l-1.7,1.7l2.1,2.9l-4,0.4l-7.8,3.3l-0.4,0.2L626,658l4.5-3.7l2.2-0.7
			l-1.8-0.4l-4.5,1.3l0.9-6.1l-2.5-1l-1.6,3.3l-1.2-0.3l-2.1-0.8l-1.4-3l-0.6,1.5l2.8,2.4L620,654l2.5,1.4l0.3,5.1l-1-0.3
			L619.2,663.3z"/>
		<path class="st0" d="M303.8,297.8l-1.8,11.1l-1.4,8.7l-1.1,6.7l19.6,3l0.9,0.1l18.7,2.6l-1.2,9.2l-1.6,11.4l-2.1,14.9l-0.6,4.3
			l-0.5,3.5l-3.4,23l-0.9,9.3l-1,7.2l-1.5,10.5l-1.8,12.9l-19.9-2.8l-15.6-2.5l-13.7-2.2l-23.3-3.9l-7.4-1.3l-23.8-4.4l3-15.9
			l2.8-14.3l2.1-11.2l0.5-2.7l4.4-22.8l1.9-9.6l1.1-5.5L241,314l5-26.1l20.1,3.6l16.1,2.9l1.1,0.2l11.6,1.9L303.8,297.8z"/>
		<path class="st0" d="M1015.6,397l-1.4,5.6l0,5.3l-1.9-3.5l0.3-8.1l1.8-0.5l-2.1,0.3l1.3-5.2l2.2-3.1l0.5-4.5l4.8-1.6l-0.1,3.6
			l-2.7,5.6l0.3,3.5L1015.6,397z M997.1,392.6l-1.8-0.1l-4.9-3.6l-1.3-2.2l-3-1.6l-0.1,0l0.5,1.4l2.8,0.5l0.7,2.4l3,1.6l2.9,2.8
			l3.9,3.5l5.1,0.4l-2.3,1.7l-2.9-0.9l2.6,1l1.5-0.6l2.7,1.7l0.2,3.5l-4.2-3l2.1,4.7l-2.3,0.9l-5.2-4.5l-2.6-3.3l-3.4,0.9l3.1,0.3
			l1.8,2.2l2.2,2l1.5,1.4l5.3,2l-0.2,1.5l0.8,0.6l2.4,0.2l-1.9,3l-5.6-2.6l0.1-1.2l-1-1.1l-4.8,0.3l-0.8-3.3l0.5,2.8l-3.1-0.8
			l-5,0.8l-0.2-1.7l-1.4,0.2l0.4,2l1.4,0.2l3.2-1l2.2,1.6l4.4-0.2l2.9,1.2l1,2.6l3.9,1.5l-0.5,1.4l0.2,1.8l2.3-2l0.8,1.4l-0.2,0.7
			l2.2-0.9l1-0.3l0.4-0.2l0.3,0l-2.7-0.6l-0.5-2.3l3.2,0.5l4-0.6l4.6,8.9l-0.5,0.1l-2-4.2l0.1,4.6l-0.7,0.1l-0.5,0.1l-1.8,0.4
			l-3.9,0.8l-3.7,0.8l-1,0.2l-7.7,1.6l0,0.2l-5.1,1l-2.7,0.6l-9.7,1.9l-2.7,0.6l-3,0.6l-5.8,1.1l-2.8,0.6l-5.8,1.1l-1.3,0.2
			l-7.1,1.3l-1.7,0.3l-2.6,0.5l-2.7,0.5l-0.8,0.1l-4.3,0.7l-6.5,1.1l-0.5,0.1l-8.1,1.1l-3.6,0.4l-4.7,0.7l-1.3,0.1l-9.5,1.1
			l-6.8,0.7l0.5-0.7l-3.8,0.5l-6.6,1.5l-2,0.3l-1.1,0.2l-6.6,1l-4.6,0.7l-3.2,0.4l-10.2,1.3l-4.3,0.5l4.3-2.3l6.5-3l0.9-3.1l3.9-1.6
			l-0.1-2.2l2.8-2.3l-0.3-1.9l3-2.6l0.2-0.2l4.7-3.3l6.1-7.4l0.9,0.5l-1.2,1l3.6,4.8l2.5,1l3.8,0.3l3.6-4.1l3.3,2.3l4.8-2.3l2.5-1.8
			l-0.6-2.1l0,0l2.1,1.2l4.9-3.8l1,1.4l3.2-2.9l-0.8-1.4l1.9-2l-1.8-1.4l1.9-5.3l1.8-2.4l1.5-3.3l0.3-3.2l2.2-2.7l-0.5-1.1l1.9-3.7
			l0.1-4.4l2.4,0.7l1.6,2.2l3.5,0.6l1.5-2.1l2-8.1l0.9-2.6l2.9,1.8l1.1-3.6l1.3-0.7l2.7-4.7l0.6-1l1.7-2.5l-0.8-2.3l1.1-2.8
			l-0.7-2.9l2.7,1.5l4.5,2.6l4.8,2.7l1.2-5.4l0.8-0.3l2.3,0.1l2.6,1.7l-1,2.3l1.7,1.6l2.8-0.1l4.8,2.4l0.6,0.6l1.3,1.5l0.2,1.4
			l0.5,1.8l-1.9,2.5l-1.9-0.4l-0.3,4.6l0.4,4.5l1.8-0.2l3.5-2.6l1,3.4l4.4,2l4.7-0.6l2.4,2.4l-1,1l2.1-0.4l5.4,2.5l-1.2,5.3l0.3,2.4
			l-3.8-0.6L997.1,392.6z"/>
		<path class="st0" d="M1032.3,187l11.9-3l7.1-2l0.8,2.6l-1.4,4.9l2.8,3.8l-0.2,2.2l-2.7,3.5l-1,1.8l-3.4,1.6l1,4.3l-0.5,10.7
			l-1.3,2.4l0.1,2.6l-0.7,1l1.2,9l0.1,1.9l1.1,3.9l-1.1,4.6l2.7,2.8l-8.9,1.9l-1.8,0.4l-4.6,1l-1.4-5.1l-2-9.7l-1.4-6.2l-1.5-1.6
			l-2.4,0.1l0.5-3.1l-0.7-1.4l-2.6-5.8l-0.1-4.1l1-2.2l-0.7-4.3l-1.5-2.9l-0.5-0.3l-0.8-1.2l-0.2-5.1l-1-0.6l-0.5-4.6l2.7-0.7
			L1032.3,187z"/>
		<path class="st0" d="M125.6,111.4l-2,1.1l2.1-3.9L125.6,111.4z M126,103.5l0.1,3.1l-1.5-0.8L126,103.5z M130.1,85.6l0.8,2.8
			l-2.7-0.3l-1.8,1l2,1.1l-0.3,5.2l0.9-2l2.1,2.3l-0.9,3.2l-3.1-4.3l0.8-3.2l-2.2-2.5l3.1-3.9L130.1,85.6z M126.4,80.2l0,3.4
			l-1.8-1.5L126.4,80.2z M122.3,77.1l1.8,2.2l-1.1,2.5l-1.4-1.5L122.3,77.1z M127.2,76l2.3,2.1l-4,0.6l-0.6-1.7L127.2,76z
			 M129.2,84.9l-0.3-2.3l1.7-0.3l1.7,2.3l1.3-4.8l0.7-2.5l-2.4-1.6l-1.7-5l1.5-1.3l16.9,4.9l15.5,4.1l13.5,3.6l20.9,5.2l11,2.7
			l13.2,3.1l6.8,1.6l-0.9,3.9l-4.8,20.5l-0.4,1.7l-3.5,15.7l-0.6,2.7l-0.8,3.4l-3.4,15.1l-0.7,3l-0.8,2l1.4,5.1l-1.1,1.7l0.2,2.9
			L204,170l-2.2-0.5l-6.7-1.6l-0.3-0.1l-17.8-4.3l-2.9,1.1l-5.6-1l-2.5-0.8l-2.2,1.3l-3.7-0.4l-2.5,0l-4.5,1.3l-5-0.5l-2.8-1.9
			l-5.4,1.2l-5.2-0.7l0.1-1.4l-3.9-1.9l-1.3-1.1l-5.2-0.9l-2.4,0.9l-6.6,0.9l-6.4-3.4l-1.8-1.7l0.4-2.1l0.5-3.2l-0.4-6.5l-3.1-3.7
			l-1.7-0.2l0-0.1l-1.3,0.3l-2.3-3.9l-4.6-2l-3,0.5l-2-2.7l-1.4,0.8l3.4-7.6l-1.4,5.4l1,0.2l2.3-4l-0.6-2l2.9-2l-2.9-0.5l-1.1-2.8
			l0.2-3l1.5,0.8l4.4-0.4l-5.2-3.3l0.6-7l-0.9-2.3l0.8-4.7l0.3-5.8l-2-4.2l0.2-7.9l2.5-3.7L93.5,75l2.7,1.2l2.3,2.9l2.2,1.3l3.8,3.9
			l4.7,1.3l4.9,2.9l5.1,0.5l2.6,3.1l2.2-1.3l1.7,7.2l-1.3,0.2l-2.7,3.7l0.3-3.6l-2.8,3.9l-1.8,1.1l-1.2,2l2.6-2l3.2-0.4l2.2-3
			l3.6-2.1l-0.6,4.5l-1.2-0.6l-2.2,4.4l1.5,2l-1.8,2.4l-1.7,3.6l-1.3-1.3l1.6-2.7l-0.1,0l-2.1,1.2l-1.8,4.2l-0.7-2.3l1.4-2.8
			l-2.8,1.3l-0.9,1.9l-3,2l2.9-1.2l-1.8,2.2l1.7,0.5l2.3-2.2l1.5,2.6l2.6-1.7l1.8-3.1l2,0.5l1.8-0.3l0-6.2l1.6-0.3l-1.3-1.9l1.6-2.7
			l2.8-3.9l2.5-1.6l-2.1-2.3l0.1-3.6l-1.8,1l1.1,2.7l-1.9-1.8l0.5-3l2.2,0.6l0.7-1.1L129.2,84.9z"/>
		<path class="st0" d="M695.5,188.7l0.8,0.7l-3.8,2.7L695.5,188.7z M690.1,196.6l4-2.3l2.9,2l2.4,0.3l0,0l1.2,0.6l0.8,0.6l1.5,0.1
			l1.2,1.8l1.2,2.7l3.6,0.8l0,0.3l0-0.3l15.7,3.2l1.9,1l1.1,0.5l4.7,1.2l2.7-0.4l2.6,0.9l5.3,1.1l-0.1,2.6l1.5,1l4,1.2l1.3,1.2
			l-0.7,3.1l0.9,1.5l-1.4,4.1l4.5,0l-1.4,3.9l2.6,2.4l0,3.1l-2.4,0.7l-2.3,3.9l-1.3,4.1l-0.1,0l-0.1,0l-0.8,3.1l2.3,0.6l2.9-3.1
			l0.4-0.9l2-4.4l3.7-2.2l2.5-7.2l2.1-0.9l0.7-2.8l1.6-0.2l-3,9l-0.1,2.5l-1.9,2.5l-0.8,3l-1.6,4.6l-0.7,5l0.5,4.5l-1.8,1.5
			l-1.2,5.9l1,5.4l-1.4,4l-1.6,7.8l0.5,1.7l2.1,9.2l1.4,1.4l-0.6,3.2l0.4,4.7l-7.6,0.6l-2.1,0.2l-7.8,0.6l-1.3,0.1l-3.2,0.2
			l-8.3,0.5l-0.7,0l-8.5,0.4l-1.7,0.1l-9.7,0.6l-4.2,0.2l-1.4-3.2l-3.8-1l-3.4-1.9l-2.1-6.2l-0.5-2.4l2-4.8l-2.9-2.3l-0.1-1.9
			l-0.3-2.1l-1.1-3l0.1-3l-0.7-3.1l-2.9-3.5l-2.6-1l-5.9-4.2l-2.1-4.3l-2.4-1.2l-3-1.1l-1.5-2.3l-4.4-0.6l-3.6-3.8l-1.4-0.8l0.5-3.1
			l-0.6-5.7l0.5-3.5l0.2-2.3l1.7-3.9l-2.5-3.3l-2.1-0.1l-0.1-1.8l0.8-2.3l3.2-5.3l5.6-2.7l0.9-3.8l-0.3-6.9l-0.2-6.5l1.6,0l1.6-2.3
			l2,1.5l3.3-0.4l4.8-2l5.3-2.5l2.6-0.6l4.2-3l2.1,1.6l-2.2,3.9l0.7,1.5L690.1,196.6z"/>
		<path class="st0" d="M905.8,336.7l0.4,2.1l1,6.3l0.6,3.8l0.2,1.4l1,6.4l2-0.3l10.1-1.7l3-0.5l5.7-1l2.2,13.6l3.7-4l3.4-4.7
			l2.2,0.7l2.6-5.1l3.1,1.4l3.9-0.2l0.2-2.9l1.9-0.8l1.4,0.1l1.3-2.3l3.5,1.4l3.7-0.4l-0.7,1.6l1.5,1.3l3,4.1l-1.2,5.4l-4.8-2.7
			l-4.5-2.6l-2.7-1.5l0.7,2.9l-1.1,2.8l0.8,2.3l-1.7,2.5l-0.6,1L949,372l-1.3,0.7l-1.1,3.6l-2.9-1.8l-0.9,2.6l-2,8.1l-1.5,2.1
			l-3.5-0.6l-1.6-2.2l-2.4-0.7l-0.1,4.4l-1.9,3.7l0.5,1.1l-2.2,2.7l-0.3,3.2l-1.5,3.3l-1.8,2.4l-1.9,5.3l1.8,1.4l-1.9,2l0.8,1.4
			l-3.2,2.9l-1-1.4l-4.9,3.8l-2.1-1.2l0,0l0.6,2.1l-2.5,1.8l-4.8,2.3l-3.3-2.3l-3.6,4.1l-3.8-0.3l-2.5-1l-3.6-4.8l1.2-1l-0.9-0.5
			l-3.3,0.1l-5-4.4l-2.1-2.8l-2-2.2l-1.5-3.1l-2-1.6l0.2-3l-0.5-4.6l1.9,0l3.6-1.5l0.2-3.6l1.4-0.5l0.8-0.5l-1.6-4.7l1.3-1.5
			l0.4-3.4l1.7-2l2.4,2.1l0.1,1.6l2.4-1.6l0-4.7l-0.5-2.2l0.5-1l0.7-1.6l2.1-0.2l0.1-2.1l2-2.1l1.7,1.6l4.5-3.9l1.3-2.4l1.6-2.1
			l1.7-3.4l-0.3-3.4l1.1-1.9l-0.1-3.3l0.1-3.4l0.3-0.8l1.1-3.8l-0.9-1.9l0.3-1.9l-1.9-2.9l2.7-2L905.8,336.7z"/>
		<path class="st0" d="M361.4,225.5l6.9,0.9l6.3,0.8l30.7,3.8l4.4,0.5l17.5,1.6l1,0.1l18.3,1.7l-0.9,11.3l-0.8,10.4l-0.1,1l-0.7,7.6
			l-0.8,9.3l-0.1,0.7l-1,12.6l-0.9,10.5l-1.4,16.2l-0.7,8.1l-0.3,3.6l-0.4,4.6l-0.9,10.4l-17.6-1.5l-6.6-0.6l-18.1-1.8l-2.6-0.3
			l-10.6-1.3l-9.1-1.1l-11.8-1.4l-22.3-2.9l-18.7-2.6l-0.9-0.1l-19.6-3l1.1-6.7l1.4-8.7l1.8-11.1l2.2-13.5l2.2-13.4l1.2-7.8l0.8-4.9
			l2-12.7l2-12.9l0.7-5.1l1.6-8.8l6.2,1.2l16.8,2.3L361.4,225.5z"/>
		<path class="st0" d="M0,0"/>
	</g>
	<path id="state-borders" class="st1" d="M52.8,239.8l7.3,2.3l5.7,1.6l5.4,1.5l17.7,5l15.8,4.7l10.7,3l16.7,4.4l12.1,3.1l0.7,0.2
		l21.5,5.2l22.3,5.1l9.9-43.8l0.9-4.2l1-0.8l1.5-2.6l-0.2-2.8l1.8-1.4l-0.9-2.7l-4.2-2.5l1-4.8l1.8-1.3l3.1-4.8l3.1-1.8l1.8-2.1
		l0.2-2.3l1.5-1.2l2.9-4.5l3.7-5.7l2.3-2.4l-0.8-3.9l-3.9-3.7l-1.4-4.1l-0.2-2.9l1.1-1.7l-1.4-5.1l0.8-2l0.7-3l3.4-15.1l0.8-3.4
		l0.6-2.7l3.5-15.7l0.4-1.7l4.8-20.5l0.9-3.9 M586.9,216.3l-0.2-2.3l0.3-2.5l-0.7-5.7l-2.5-4.2l-0.8-3.8l-0.3,0l0-4.4l0.7-3.6
		l-1.4-2l0-3.8l0.2-2.3l-0.3-6.9l-0.8-4.6L579,165l-2.2-8l0.1-0.5l0.5-3.4l-0.8-5.8l1.2-3.8l-1-1.9l-1.2-6.4 M754,231.6l-2.6-2.4
		l1.4-3.9l-4.5,0l1.4-4.1l-0.9-1.5l0.7-3.1l-1.3-1.2l-4-1.2l-1.5-1l0.1-2.6l-5.3-1.1l-2.6-0.9l-2.7,0.4l-4.7-1.2l-1.1-0.5l-1.9-1
		l-15.7-3.2l0,0.3l0-0.3l-3.6-0.8l-1.2-2.7l-1.2-1.8l-1.5-0.1l-0.8-0.6l-1.2-0.6 M102.9,138.8l1.7,0.2l3.1,3.7l0.4,6.5l-0.5,3.2
		l-0.4,2.1l1.8,1.7l6.4,3.4l6.6-0.9l2.4-0.9l5.2,0.9l1.3,1.1l3.9,1.9l-0.1,1.4l5.2,0.7l5.4-1.2l2.8,1.9l5,0.5l4.5-1.3l2.5,0l3.7,0.4
		l2.2-1.3l2.5,0.8l5.6,1l2.9-1.1l17.8,4.3l0.3,0.1l6.7,1.6l2.2,0.5l10.1,2.4 M588.6,281.1l0-9.3l0.1-9.2v0l0.1-9.2l0-2.3l0-4.7
		l0-4.5l0-7.7l-0.3-1.5l-4.2-2.5l-2.6-4.4l0-1.6l3.4-2.6l1.7-5l-12.3-0.1l-13.9-0.3l-0.6,0l-13.2-0.4l-5.2-0.2l-13.2-0.5l-3-0.1
		l-11.7-0.6l-27.4-1.5l0,0l-17.4-1.2l-1-0.1l-19.3-1.5 M1076.7,227l-0.3-2.5l-4.4-3.1l-0.7-4.2l-2.2-6.3l0,0l-3.8-12.6l-4.1-13.2
		l-4.3-12.7 M1018,190.5l0.5,4.6l1,0.6l0.2,5.1l0.8,1.2l0.5,0.3l1.5,2.9l0.7,4.3l-1,2.2l0.1,4.1l2.6,5.8l0.7,1.4l-0.5,3.1l2.4-0.1
		l1.5,1.6l1.4,6.2l2,9.7l1.4,5.1l4.6-1l1.8-0.4l8.9-1.9l-2.7-2.8l1.1-4.6l-1.1-3.9l-0.1-1.9l-1.2-9l0.7-1l-0.1-2.6l1.3-2.4l0.5-10.7
		l-1-4.3l3.4-1.6l1-1.8l2.7-3.5l0.2-2.2l-2.8-3.8l1.4-4.9l-0.8-2.6 M455.5,129.5l-0.8,9.6l-0.5,6.4l-0.8,10.3l-1.3,15.7l-0.2,1.8
		l-1.5,18.1l-0.2,2.6l-0.6,6.9l-0.7,8.8l-0.1,1.7l-1.4,17.7l-0.8,5.7l-18.3-1.7l-1-0.1l-17.5-1.6l-4.4-0.5l-30.7-3.8l-6.3-0.8
		l-6.9-0.9l-21.9-3.1l-16.8-2.3l-6.2-1.2l-1.6,8.8l-0.7,5.1l-2,12.9l-2,12.7l-0.8,4.9l-1.2,7.8l-2.2,13.4l-2.2,13.5l-1.8,11.1
		l-1.4,8.7l-1.1,6.7l19.6,3l0.9,0.1l18.7,2.6l22.3,2.9l11.8,1.4l9.1,1.1l10.6,1.3l2.6,0.3l18.1,1.8l6.6,0.6l17.6,1.5l0.9-10.4
		l0.4-4.6l0.3-3.6l0.7-8.1l1.4-16.2l0.9-10.5l1-12.6l0.1-0.7l0.8-9.3l0.7-7.6l0.1-1l0.8-10.4l0.9-11.3 M303.8,297.8l-8.9-1.4
		l-11.6-1.9l-1.1-0.2l-16.1-2.9l-20.1-3.6l-4.6-0.9l-14.5-2.9l-21.2-4.5l-16.7-3.7l-0.2-0.1 M1049,245.5l3.3-0.7l6.7-1.5l0.6-0.1
		l11.4-2.6l0.5-1.2l0.2-0.2l2.9-2.5l0.3-1.5l3.9-1.4 M1033.9,267.9l-0.2,0l-0.4-0.9l0.3-11.7l0.2-6.5 M442,287.8l10.6,1l9.7,0.7
		l4,0.3l13.7,0.9l16.5,1l19.9,1l12.8,0.5l5.4,0.2l14.6,0.4l3.6,3.2l3,1.2l2.3,2.1l1.6-0.1l1.7-2.4l4.5,0.3l2.9,0.1l3.4-0.4l2.8,1.8
		l2.8,1l4.1,1.6l2.1,1.5l1.3,3.4l3.6,0.9l-1-1.9l-0.2-1.9l-2.2-2.1l-0.1-1.6l1.8-3.8l0.6-3.8l1.1-0.9l-0.4-3.6l-1.5-1.1l0.6-3.6
		l-1.4-2.9l2.8,0l7.7,0l3.7,0l7.8,0l1.3,0l9.1-0.1l1.1,0l7.9-0.1l3.7-0.1l5.3-0.1l6.2-0.1l2.9-0.1l8.6-0.3l0.5,0l9-0.3l2-0.1
		l7.1-0.3l6.7-0.3l2.3-0.1l7.5-0.4l0.3,2.1l0.1,1.9l2.9,2.3l-2,4.8l0.5,2.4l2.1,6.2l3.4,1.9l3.8,1l1.4,3.2l4.2-0.2l9.7-0.6l1.7-0.1
		l8.5-0.4l0.7,0l8.3-0.5l3.2-0.2l1.3-0.1l7.8-0.6l2.1-0.2l7.6-0.6 M1015.9,328.6l1.3-1.8l4.3-3.7l-5.4-4.1l-2.8-1.6l-0.8-3.1
		l-2.7-0.8l-0.2-0.4l-0.5-4.5l1.8-2.9l-1.9-2.2l2.2-4l-0.5,0.2l1.9-5.5l2.2-2.6l-1.5-1.6l-4.7-0.4l-2.4-2.8l-0.6-4l-2.3-2.2
		l-2.3,0.2l-2.8-3.2l-2.3,0.5l-11.9,2.5l-0.8,0.2l-7.9,1.7l-7.1,1.5l-0.8,0.2l-12.4,2.5l-2.7,0.6l-8.8,1.6l-1.9,0.4l-11.8,2.3
		l-2.8,0.4l-10.6,1.9l-2.9,0.5l-1.2-7.1 M701.5,304.6l-0.2,0.8l3.6,2.4l1.8,4l1.5,0.8l3.1,1.9l0.3,2.2l0.2,2.7l-1.5,4l-1.4,1.5
		l-0.3,3.8l-6,3.7l-2.6,0.4l-5,1.2l-0.5,2.3l0,0L694,339l2.6,2.1l0.9,2.2l0,0.1l-0.1,3.9l-2.4,2.8l-0.3,3.5l-1.4,1.6l-3.3,1l-1,1.5
		l1,4l-1.1,0.7l-6.2-5.6l-4.5,0l-4.7,0.3l-3.4,0.2l-5.7,0.4l-1.5,0.1l-7.6,0.4l-5.5,0.3l-3.6,0.1l-4.3,0.2l-4.8,0.2l-4.3,0.1
		l-4.8,0.1l-3.2,0l-5.6,0l-5.7,0l-3.4,0L602,359l-2.4-4.4l1-1l0.4-3.2l-1.3-4.1l0-2.9l-0.9-0.8l0.6-3.5l-0.9-1.9l-1.2-3.1l-1.8-0.6
		l-0.7-4.1l1.1-3.1l-1.4-1.8l0.1-2.9l-2.8-2l0.1-1.7l-1.7-2.8l0-1.6l-1.1-1.7l0.3-3.8l-1-0.1 M1082.6,270.7l-1.4-4.1l-1.3-0.1
		 M842.7,312.1l-5.4,0.9l-2.3,0.4l-9.3,1.5l-0.8,0.1l-7.9,1.2 M1037.2,296.2l-2-2.5l4-4.1l-2.2-3.7l-0.7-4.3l-0.6-3.7l-1.8-10.1
		l8.3-1.8l0.9-0.2l9.5-2.2l7.1-1.7l0.6-0.1l5.9-0.9l2.1,7.3l0.6,2.2l0.3,1.1l1.1,4.7l-0.4,2.5 M1014.9,291.4l7.4,2.5l2.9,0.9
		l0.4,0.2l6.8,2.1 M132.2,262.3l-5.4,21l-9.8,37.9l-1.9,7.1l-1,3.4l-0.9,3.9l-0.3,1.4l-0.3,1.2l-0.4,1.8l1.5,2.2l4.9,7.4l3.9,5.8
		l2.7,4l11.3,17.1l9.4,14.1l10.6,16l20.7,31.2l4,6l17,25.6l0.3-2.7l2-1.3l0.3-4.4l-0.7-5.2l1.2-9l0.2-6.4l2.9-1l5.4,1.1l2.2,4
		l1.7,0.1l3.1-4l3.2-17.1l0.8-4.1l23.8,4.4l7.4,1.3l23.3,3.9l13.7,2.2l15.6,2.5l19.9,2.8l1.8-12.9l1.5-10.5l1-7.2l0.9-9.3l3.4-23
		l0.5-3.5l0.6-4.3l2.1-14.9l1.6-11.4l1.2-9.2 M929.9,353.2l-5.7,1l-3,0.5l-10.1,1.7l-2,0.3l-1-6.4l-0.2-1.4l-0.6-3.8l-1-6.3
		l-0.4-2.1l-0.7-4.3 M475.4,370.7l12.9,0.8l1.7,0.1l11.4,0.6l0.4,0l11,0.5l0.3,0l11.1,0.4l0.1,0l9,0.3l2.3,0.1l6.9,0.2l4.5,0.1
		l4.6,0.1l6.9,0.2l2.2,0l9.1,0.2l9.1,0.1l2.2,0l6.9,0.1l4.5,0l4.6,0l4.5,0l9,0l0.6,0l-2.3-1.5l0.5-1.8l-3.1-3.6l-0.1-0.1l-1.2-1.3
		l-2-5.6L602,359 M824.9,385.3l-0.9,2.1l0.6,3.4l1.7,1l-0.2,2l-4.2,1.1l-3.4,2.3l-2.8-0.9l-2.3,1l0.9,3.2l0.1,1.7l-3.8,4.3l-1.8,3.2
		l-1.1-0.4l-1.9,3.2l-0.5,4.7l-1,0.3l-3.8,0.1l-1.9-1l-1.6-3.2l-2.5,1.9l-0.4,2.1l-0.1,3.2L791,423l0.1-1.5l-2.2-0.2l-1.5-2.2
		l-3.2,2.1l-1.7,3.8l-4.1-1.9l-0.7-0.5l-3.2-0.8l-1.2,1l-1.7-1.7l-0.3,3.9l-1.9-1.6l-4.7,0.3l0.6,2.5l-2.5,0.4l-2.4,3.9l0.7,2.3
		l1.7,1.7l-0.4,0.9l-4,0.9l-1.5,1.4l-1.2-0.4l-1.2,1.1l-0.5,3.4l2,2.8l-1.2,2.3l-1.6-0.2l-7.9-3.3l-0.1,0.1l-3.1,2l-1.5,2.7l0.9,2.2
		l-2.8-2l-1.1,1.5l-1.4-0.7l-2.7-5.5l-0.1-2.3l1.2-1.8l-2.4-4.3l0-0.2l0-3l-3.4-1.7l-0.2-1.2l-3.7-2.5l-1.9,0.9l-1.4-2.3l-4.5-3.1
		l-1-1l-2.4-2.6l0.1-4.2l1.3-3.7l0.2-0.3l1.4-3.5l0.1-3l0.9-0.9l0-1.2l-3.4-1.7l-3.7-1l-1.8,2.7l-2.5-1.5l-1.6-7.7l-1.1-1.9
		l-3.6-2.6l-1.9-1l-3.3-4l-2.7-2.2l-1.3-1.9l-1.5-2.2l-0.1-2.7l-1.3-2.4l-0.4-4.4l0.1-1.3l1.4-3.5 M980.9,365l-4.8-2.4l-2.8,0.1
		l-1.7-1.6l1-2.3L970,357l-2.3-0.1l-0.8,0.3l-3-4.1l-1.5-1.3l0.7-1.6l-3.7,0.4l-3.5-1.4l-1.3,2.3l-1.4-0.1l-1.9,0.8l-0.2,2.9
		l-3.9,0.2l-3.1-1.4l-2.6,5.1l-2.2-0.7l-3.4,4.7l-3.7,4l-2.2-13.6l1.7-0.3l9.2-1.7l2.4-0.4l8.5-1.6l0.8-0.1l4.8-0.9l12.5-2.4l0.2,0
		l4.8-1l4.3-0.9l4.2-0.9l4.3-0.9l6.5-1.4l0.1,0l1.9-0.4l6.9-1.5l3.2-3.8l0,0l0.3-0.1l3.3,0.2 M1024.4,369l-5.1,1.1l-7.1,1.3
		l-0.7-2.6l-0.5-1.9l-1.4-5l-2.3-8.1l-0.7-2.7l-0.4-1.3l-0.6-2.1l-2.4-8.9 M777.4,318.9l5.9-0.6l5.8-0.6l3.2-0.3l5.4-0.5l2.4-0.3
		l7.2-0.8l1.9-0.2l7.3-0.9l0.6,1.7l0.5,4.4l0.3,2.8l0.5,4.1l0.1,0.5l0.8,7l0.2,1.8l0.6,5.2l0.5,4.1l0.7,5.8l0.1,1.1l0.8,8.1l0.2,2.3
		l0.6,5.1l0.5,4.2l0.1,1.2l0.6,5.8l0.6,5.3l1.4-1.3l2.7,1.7l2.3-0.8l4,1.5l2.3,3.7l0.2,1.3l3.8,1l3-0.3l4.5,2.9l1.2-0.1l2.4-2
		l5.3,1.5l2.3-0.3l2.2-3.2l2.8-1.2l2.1,4.7l3.3,1.3l1.7,2l0.5,4.6l-0.2,3l2,1.6l1.5,3.1l2,2.2l2.1,2.8l5,4.4l3.3-0.1l0.9,0.5l-1.2,1
		l3.6,4.8l2.5,1l3.8,0.3l3.6-4.1l3.3,2.3l4.8-2.3l2.5-1.8l-0.6-2.1l0,0l2.1,1.2l4.9-3.8l1,1.4l3.2-2.9l-0.8-1.4l1.9-2l-1.8-1.4
		l1.9-5.3l1.8-2.4l1.5-3.3l0.3-3.2l2.2-2.7l-0.5-1.1l1.9-3.7l0.1-4.4l2.4,0.7l1.6,2.2l3.5,0.6l1.5-2.1l2-8.1l0.9-2.6l2.9,1.8
		l1.1-3.6l1.3-0.7l2.7-4.7l0.6-1l1.7-2.5l-0.8-2.3l1.1-2.8l-0.7-2.9l2.7,1.5l4.5,2.6l4.8,2.7l1.2-5.4 M981.5,365.6l-0.6-0.6l2.2-1.3
		l2.3,1.5l-1.7,2.6 M1021.1,381.7l-4.8,1.6 M611.2,374.7l4.5,3.7l1.8-1l2.4,2l-0.1,2.5l-1.5-0.5l-2,3.3l-1,2.4l2.7,3l1.8,1.1l-0.4,2
		l2.6,2.7l3.5,1l-0.1,1.2l0,1.9l0.1,5.3l0,2.9l0,7l0,2.4l0.1,8.8l0,0.6l0.1,9.8l0,0.5l0.1,7.8l0,0.7l0.1,7.5l0,1.6l-8.2,0.1l-1.4,0
		l-7,0.1l-2.4,0l-5.5,0l-3.7,0l-0.8,0l-11,0l-4.7,0l-8.4-0.1l-6.6-0.1l-7.1-0.1l-6.5-0.1l-4.9-0.1l-4.1-0.1l-9.6-0.3l-9.6-0.3
		l-1.8-0.1l-9.7-0.4l-1.8-0.1l-11.4-0.5l-6.6-0.3l-2.5-0.1l-10.2-0.5l-9.9-0.5l-0.3,0 M736.3,463.7l1.7-3.7l1.8,1.7l1.4-2.5
		l-0.6-1.7l1.5-1.9l0.2-4.3l-0.8-1 M630.5,544.9l0.1-8.1l0-6.7l0.1-8.5l0.1-5.9l0.1-5.5l0.1-12l0-0.4l-1-6.4l-0.5-3.2l-1.4-9.2
		l-0.3-1.6l-1.3-9l-0.1-4.5l0-2.6l-0.1-6.2 M626.5,468.3l11.4-0.2l4.4-0.1l6-0.1l5.7-0.1l0.4,0l9.4-0.3l1.7-0.1l5.1-0.2l8-0.3l0.6,0
		l9.5-0.4l4.7-0.2l0.9,0l5.9-0.3l7.2-0.4l4.4-0.2l7.5-0.4l1.4-0.1l1.7,2.5l0.5,2.6l-2.5,2.9l-2.9,4.3l-0.7,1.4l1.9-0.1l7-0.5
		l5.4-0.4l1.5,2.5l-2.1,0.1l1,1.9l-2.4,2.2l-2.8,0.7l2.2,2.6l-2.1,1.4l1.1,1.3l-2.8-0.1l0.2,4l-0.3,0.2l-0.4-1.9l-1.6,0.8l1.5,1.3
		l-1.4,3.5l1.7,0.8l0.3,2.2l-2.2,0.7l-0.7,2.5l-2,0.9l1.5,1.8l-1.2,1.8l-2.2,0.9l-1.7-0.7l0.9,3.1l-2.4,0.8l2.3,1.2l-2.5,1l0.5,3.1
		l0,3l-3.8,1.5l0.4,1.6l-2.2,2.6l-2-0.5l2.6,2.4l-2.8,0.7l0,0l1.6,2.3l-4.3,2l1.7,5.3l-2.4-0.4l0.4,2.1l-2.2,1.3l1.9,1.7l-2.1,1
		l0.4,0.8l-0.3,2.4l2.2-1.2l0,4.8l1.4,4.2l-2.5,1l1.9,1.3l-1,1.2l0,0.2l-2.2,0.1l-3.8,0.2l-0.5,0l-13.5,0.5l-14.5,0.4l-5.8,0.1
		l-5.5,0.2l-5.6,0.1l-0.7,0l-6.3,0.1l-0.2,0l-5,0.1l-0.1-6.7l-0.2-7.5l-2.5-1l-5,1.3l-2.2-2.4l-5.7-1.7l-0.7-1.6l-1.8,0.5l-2.4-3.1
		l-4.1-2l-1.4-0.7l-2,2.3l-5.3-0.3l-1-1.4l-3.5,1.8l-1.9,0.9l-1.9-1.3l-3.4,0.8l-2,2.6l-4.4,0.9l-1-1.4l-4.5-1.8l0.9-1.3l-1.5-0.5
		l-2.6,2.1l-2.1-0.6l-1.4-2.7l-0.2,0.1l-3.3,4.1l-0.3,1.9l-2.1-2.2l0.4-2.7l-2.7,0.3l-1.4,1.8l-1.9-0.6l-0.4-2l-1.7,0.4l-2.7-2.4
		l-4,3.6l-2.3-1.1l0.8-2.7l-3-0.4l-1.1-3.8l-0.7,0.8l-4.2-1.2l-1.3,2l-1.4,0.5l-2.6-2.6l-3.4,0.5l-4-2.2l-5.1-0.2l-0.4-3.3l-3.5-3.4
		l-0.5,2.2l-1.6-0.6l-2.3-0.6l-2.5,0.9l-3.1-3.5l-1.7-1.9l-1.6,0.3l0.1-5l0.3-7.6l0.2-4.1l0.3-6.4l0.2-5.3l0.3-7l0.2-4.7l0.4-11.9
		l-11.4-0.5l-8.6-0.4l-2.8-0.1l-11.4-0.6l-8.6-0.6l-2.7-0.2l-17.7-1.2 M1018.9,422.4l0.5-0.1 M856.8,449l4.3-0.5l10.2-1.3l3.2-0.4
		l4.6-0.7l6.6-1l1.1-0.2l2-0.3l6.6-1.5l3.8-0.5l-0.5,0.7l6.8-0.7l9.5-1.1l1.3-0.1l4.7-0.7l3.6-0.4l8.1-1.1l0.5-0.1l6.5-1.1l4.3-0.7
		l0.8-0.1l2.7-0.5l2.6-0.5l1.7-0.3l7.1-1.3l1.3-0.2l5.8-1.1l2.8-0.6l5.8-1.1l3-0.6l2.7-0.6l9.7-1.9l2.7-0.6l5.1-1l0-0.2l7.7-1.6
		l1-0.2l3.7-0.8l3.9-0.8l1.8-0.4 M888.8,419.1l-6.1,7.4l-4.7,3.3l-0.2,0.2l-3,2.6l0.3,1.9l-2.8,2.3l0.1,2.2l-3.9,1.6l-0.9,3.1
		l-6.5,3l-4.3,2.3l-5.3,1l-1.7,0.1l-4.5,0.5l-0.7,0.1l-10.9,1l-0.2,0l-4,0.1l-6.3,0.4l-0.4,0.1l-2.9,0.5l-7.4,0.7l-3.9,0.2l-4.9,0.2
		l-4.4,0.1l-3.1,0.8l-4.3,0l-6.2,0.8l-1.1,0.1l-4.6,0.5l-6.4,0.7l-1.1,0.1l-8-0.4l0.8,4.8l-9.2,0.7l-0.6,0l-6.3,0.5l-0.2,0l-0.2,0
		l-10.8,0.8l-1.5,0.2l-1.4,0.1 M719.9,505.1l12.6-0.8l1.7-0.1l6.3-0.4l3.3-0.3l3.9-0.3l4.2-0.3l0.8-0.1l8.7-0.7l0.4,0l3.5-0.3
		l4.6-0.7l8.1-0.6l8.2-0.6l0.3,0l8.1-0.6l1.1-0.1l10-1l0.2,0l9.6-0.9l5.6-0.5l2.8-0.3l2.4-0.3l2.1-0.3l6.1-0.8l3.6-0.4l0.8-0.1
		l3.3-0.4l6.4-0.8l-0.1-5.9l1.5-1.8l1.9,0.4l1.9-1.6l-0.2-3l1.1-1.7l0.2,0.1l3.5-3.2l2.3-0.5l3.5-0.3l4.7-4.2l-0.1-0.5l0,0l3.5-2.5
		l2.5-0.4l0.8-4.3l1.7,0.4l0.5-1.9l2.8-2.5l0.8,0.6l0.1,1.9l2.2-0.6l1.5-2.8l3.8-2.8l3.2,1l2.5-4.8l0.2-0.6l3.6-3.4l0.3-5.4
		 M875.4,464.2L875.4,464.2 M184.4,528.9l4.4-0.2l2.2-3.7l-0.5-3.3l-3.3-1l-0.5-1.4l1.6-4.6l-1-1.1l0.7-2.7l2.3-0.4l2.8-2.6l1.3-3.7
		l0.4-6.2l2.6-2.3l0.4-1.6l4.2-1.5l3.2-2.9l-3.6-4.7l-1.3-4.2l-0.2-3.2l-2.6-4.8l0.7-3.5 M976.4,503.8l-2-1.4l-10.7-7.7l0,0l-9.6-7
		l-0.3-0.2l-5.6-3.8l-5.1,0.8l0,0l-8.4,1.2l-5.2,0.8l-5,0.8l-0.2-3.1l-1.5-1.6l-1.7-1.8l-2.7,1.3l-0.3-2.8l-6.3,0.6l-0.8,0.1
		l-8.6,0.9l-2.3,0.2l-2,0.2l-5.3,0.5l-2.9,0.6l-4.6,1.9l-3.7,2.6l-2.8,0.7l-2.3,1.1l-2,1 M770.9,624.9l-1.1-9.2l-0.8-6.9l-0.4-3.1
		l-1.1-8.5l-0.9-6.9L766,585l0.2-9l0-2.2l0.2-7.2l0.2-9.4l0-1.7l0.1-8l0.1-6.6l0.1-5.7l0.2-8.4l0-0.8l0.1-6.3l0.1-3.8l0.1-3.2
		l0.2-8.4l-2.4-2.6 M647.1,649.7l-2.1-2.9l1.7-1.7l2.9-5l0.1-5.1l-1.3-2.6l0.5-1.6l1-1.1l-1-2.5l2.4-3.7l1.5-5.1l1-4.3l-1.1-4.1
		l-1.1,0.3l-2-3.3l-0.8-5.6l-2.7-1.9l0.8-3.1l-2-3.7l-3.2-3.6l-0.7-5.8l-0.1-5.2l-0.2-8l-0.1-5l-0.1-3.7 M450.4,449.7l-1,13.4
		l-0.8-0.1l-0.9,11.9l-0.6,8.4l-0.2,3.1l-0.9,11.7l-0.5,6.1l-0.4,5.5l-0.9,11.6l0,0.3l-1,12.7l-0.6,6.8l-0.4,4.8l-1,11.4l-0.9,11.6
		l-0.9,11.6l-0.2,2.3l-5.9-0.4l-8.9-0.7l-5.7-0.5l-1-0.1l-18.4-1.6l-1.6-0.1l-24.1-2.5l-8.5-0.9l-5.4-0.6l-0.8,3.5l2.2,2.4
		 M437.5,341.1l9.5,0.8l3.8,0.3l14.4,1.1l0.6,0l11.3,0.8l-0.4,6.8l-0.1,1.4l-0.4,6.9l-0.2,2.4l-0.6,9.3l-0.7,11.5l0,0.2l-0.7,11.6
		l-0.1,2.3l-0.6,9.3l-0.1,2.2l-0.6,9.3l0,0.2l-0.8,14l-0.2,2.5l-0.4,6.8l-0.7,10.6l-20.1-1.6l-1.8-0.1l-19.3-1.4l-24-2.1l-1.4-0.1
		l-10.4-1.1l-6-0.6l-9.8-1l-19.7-2.4l-1.3-0.2l-18.7-2.3l-13.9-1.9l-3.7,26.5l-3.8,27.7l-1.4,10.1l-3,21.2l-2.1,15.1l-1.6,11.4
		l-1.3,9.3l-4.1,28.9 M848.5,493.6l4.1-0.5l2.7-0.3l1.5-0.2l8.3-1.2l1.4-0.2l8-1.3l0,0l-0.2,1.7l-2.3,2l-1.8,4.6l0.4,0.7l5.6,3.3
		l1.3,1l1.4,0.1l2.8,0.3l2.6,4.2l1,2l3.9,4.7l0.9,1.4l5.2,2.5l3,3.4l2.9,2.2l2.1,1.1l0.4,0.3l2.1,1.5l0,2.5l2.5,3l2.3,1l0.5,1.4
		l3,0.8l1.8,1.1l0.8,0.8l0.5,2l2.9,4.7l1,3.9l2.5,0.7l1.2,1l3.1,4.2l0.1,3l1.1,2.8 M821,496.9l0.8,3.3l1.8,6.2l0.3,0.9l0.5,1.7
		l1.8,6.2l1.5,5.4l0.9,3l0.5,1.6l1.8,6.5l1.3,4.4l0.4,1.4l2.2,7.8l0.2,0.6l1.8,6.2l1.5,3.2l1.6,3.5l2.1,2.4l1.1,3.4l-0.6,1.4
		l2.8,1.4l-0.7,0.9l-2.8,3l0.3,1.8l-0.1,1.9l-1.2,3.7l0.2,2.1l0.4,0.4l2.6,6.3l-0.3,5.6l0.1,3.8l1.9,2.2l0.8,1.9l-11,1.3l-0.2,0
		l-12.1,1.4l-3.4,0.3l-4.5,0.5l-6.8,0.7l-2.2,0.1l-8.5,0.8l-9.8,0.9l-0.5,3.6l2.7,3.1l3,1.5l-0.1,5.1 M846.2,601.1l4,7.3l0,0l11-0.7
		l2.2-0.2l4.5-0.3l1.7-0.1l6-0.4l3-0.2l5.8-0.4l0.4,0l0.7,0l3.9-0.3l10.2-0.7l2.4-0.2l2.8-0.2l0.9-0.1l4.7-0.3l0.7,4.1l1.1,1.3
		l2.7-0.5l0.2-5.4l-1.4-2.3l-0.1-2.7l2.7-2.4l7.2,1.9 M704.2,559.4l-0.1,2.8l1.7-2.4l0.6,2.7l-1.4,1.4l0.2,2.7l1.8,0.3l-1.9,2.1
		l2.5,1.7l-0.6,0.4l-0.3,2.9l2.5,0l-0.4,2.3l2.1,0.5l-1.9,3.2l-2.7,0.5l-0.8,2.1l2.5,0.1l0.5,0.1l0,0.2l-0.9,2.7l-2.4,1.6l-1.2,2.5
		l-2.1,0.8l0.7,2.5l-1.4,0.5l-0.4,3.1l-2.1-0.6l2,2l-2.2,1l0.4,4.5l-1.7-1l1.6,3.3l-3.1,0.9l1.5,1.5l-0.7,2l1.5,1.3l-1.6,1.9
		l10.4-0.5l2.6-0.1l5.3-0.3l5.9-0.3l0.4,0l4.5-0.3l2-0.1l9.6-0.6l2.4-0.2l-2,9.1l0.8,2.1l3.1,3.2l2.1,6l2.2,1.1 M246.4,98.3
		l-2.7,12.8l-1.6,7.4l-1.3,6.1l2.7,6.7l1.5,1.9l0.1,2.7l-1.4,0.9l1.9,2.3l-1.9,1.1l2.6,2.6l0.1,1.4l3.2,1.6l2.6,4.9l1,3.8l1.4,1.3
		l-0.2,1.9l4.2,4.2l0.9,3l4.9,0.2l-0.9,3.6l-2.9,6l-1.3,4.6l-1.2,1.5l1.5,1.7l-0.6,3.3l-1.6-0.3l-1.6,1.7l0.7,3l-1.8,2.7l1.7,0.1
		l1.8,3.2l1.4-0.3l7.3-4.4l0.2,2.1l1.7,0.8l-0.4,5.2l0.8,4.1l1.8,4.4l1.6,1.8l-1,5l1.8,2.5l1.9-0.7l1.9,1.7l1.1,6.9l-0.3,2l3.2,2.6
		l1.1-2.7l5.7,1.1l1.4,1.1l2.4-2.8l3.4,1.8l4.4-0.4l0.6,1.6l4-0.5l2,0.7l1.4-4.4l1.9-0.8l2.4,3.9l-0.3,1.2l2.9,3.2 M666.7,195.8
		l-1.6,0l0.2,6.5l0.3,6.9l-0.9,3.8l-5.6,2.7l-3.2,5.3l-0.8,2.3l0.1,1.8l2.1,0.1l2.5,3.3l-1.7,3.9l-0.2,2.3l-0.5,3.5l0.6,5.7
		l-0.5,3.1l1.4,0.8l3.6,3.8l4.4,0.6l1.5,2.3l3,1.1l2.4,1.2l2.1,4.3l5.9,4.2l2.6,1l2.9,3.5l0.7,3.1l-0.1,3l1.1,3 M899.3,297.1
		l0.6,3.4l1.5,9.2l0,0.3l1.6,9.4l0,0.2l1,5.9l0.2,1.3l0.9,5.6l-2.7,2l1.9,2.9l-0.3,1.9l0.9,1.9l-1.1,3.8l-0.3,0.8l-0.1,3.4l0.1,3.3
		l-1.1,1.9l0.3,3.4l-1.7,3.4l-1.6,2.1l-1.3,2.4l-4.5,3.9l-1.7-1.6l-2,2.1l-0.1,2.1l-2.1,0.2l-0.7,1.6l-0.5,1l0.5,2.2l0,4.7l-2.4,1.6
		l-0.1-1.6l-2.4-2.1l-1.7,2l-0.4,3.4l-1.3,1.5l1.6,4.7l-0.8,0.5l-1.4,0.5L878,396l-3.6,1.5l-1.9,0 M763.8,321.6l0.5,6.4l0.4,4.5
		l0.3,3.5l0.4,4.1l0.7,7.3l0.6,6.6l0,0.4l0.7,8.8l0.6,7.1l0.7,7.4l0.3,3.5l0.3,3.4L768,387l-0.3,2.8l2.8,6.6l0,1.4l1,2.9l-2.8,4.9
		l0.3,1.4l-2.1,1.6l0.4,1.3l-3.1,4.2l-1.6,0.4l0.1,0.7l1.7,1.7l-3.1,7.6l1.5,2.3 M1079.1,265.7l-2.2-1.2l-2.6-5.1l-2.4-0.2l-5.6,1.7
		 M246,287.9l-5,26.1l-4.6,23.2l-1.1,5.5l-1.9,9.6l-4.4,22.8l-0.5,2.7l-2.1,11.2l-2.8,14.3l-3,15.9 M733.8,463.9l0.2,4.3l-1.4,0.8
		l1.8,1.4l-3.4,0.3l1.5,1.7l0.9,1.5l-1.7,1.3l-0.4,2.3"/>
	<text transform="matrix(1 0 0 1 795.5857 562.6888)" class="st2 st3 st4">AL</text>
	<text transform="matrix(1 0 0 1 97.1825 688.4848)" class="st2 st3 st4">AK</text>
	<text transform="matrix(1 0 0 1 241.3791 523.2486)" class="st2 st3 st4">AZ</text>
	<text transform="matrix(1 0 0 1 661.6451 505.2158)" class="st2 st3 st4">AR</text>
	<text transform="matrix(1 0 0 1 92.3794 435.2202)" class="st2 st3 st4">CA</text>
	<text transform="matrix(1 0 0 1 388.7825 385.8943)" class="st2 st3 st4">CO</text>
	<text transform="matrix(1 0 0 1 1040.0732 279.4433)" class="st2 st3 st4">CT</text>
	<text transform="matrix(1 0 0 1 1005.6997 358.8979)" class="st2 st3 st4">DE</text>
	<text transform="matrix(1 0 0 1 926.9026 675.0118)" class="st2 st3 st4">FL</text>
	<text transform="matrix(1 0 0 1 854.1871 536.2751)" class="st2 st3 st4">GA</text>
	<text transform="matrix(1 0 0 1 328.085 699.4475)" class="st2 st3 st4">HI</text>
	<text transform="matrix(1 0 0 1 229.9011 224.9333)" class="st2 st3 st4">ID</text>
	<text transform="matrix(1 0 0 1 725.3232 360.8817)" class="st2 st3 st4">IL</text>
	<text transform="matrix(1 0 0 1 785.475 360.2874)" class="st2 st3 st4">IN</text>
	<text transform="matrix(1 0 0 1 641.6815 322.1161)" class="st2 st3 st4">IA</text>
	<text transform="matrix(1 0 0 1 538.7441 418.3062)" class="st2 st3 st4">KS</text>
	<text transform="matrix(1 0 0 1 811.5737 420.8137)" class="st2 st3 st4">KY</text>
	<text transform="matrix(1 0 0 1 664.1196 604.6594)" class="st2 st3 st4">LA</text>
	<text transform="matrix(1 0 0 1 1078.3738 191.0587)" class="st2 st3 st4">ME</text>
	<text transform="matrix(1 0 0 1 965.9895 355.6136)" class="st2 st3 st4">MD</text>
	<text transform="matrix(1 0 0 1 1056.6221 259.1142)" class="st2 st3 st4">MA</text>
	<text transform="matrix(1 0 0 1 804.6625 270.0948)" class="st2 st3 st4">MI</text>
	<text transform="matrix(1 0 0 1 611.0011 214.7521)" class="st2 st3 st4">MN</text>
	<text transform="matrix(1 0 0 1 727.5218 558.2595)" class="st2 st3 st4">MS</text>
	<text transform="matrix(1 0 0 1 649.8925 410.0056)" class="st2 st3 st4">MO</text>
	<text transform="matrix(1 0 0 1 310.7349 170.9404)" class="st2 st3 st4">MT</text>
	<text transform="matrix(1 0 0 1 519.4587 329.7886)" class="st2 st3 st4">NE</text>
	<text transform="matrix(1 0 0 1 167.9157 346.2676)" class="st2 st3 st4">NV</text>
	<text transform="matrix(1 0 0 1 1040.7379 234.9423)" class="st2 st3 st4">NH</text>
	<text transform="matrix(1 0 0 1 1017.0181 314.1372)" class="st2 st3 st4">NJ</text>
	<text transform="matrix(1 0 0 1 362.439 506.6039)" class="st2 st3 st4">NM</text>
	<text transform="matrix(1 0 0 1 979.2058 245.6591)" class="st2 st3 st4">NY</text>
	<text transform="matrix(1 0 0 1 935.1664 463.9104)" class="st2 st3 st4">NC</text>
	<text transform="matrix(1 0 0 1 509.4522 174.0457)" class="st2 st3 st4">ND</text>
	<text transform="matrix(1 0 0 1 851.448 343.3631)" class="st2 st3 st4">OH</text>
	<text transform="matrix(1 0 0 1 559.4091 500.7768)" class="st2 st3 st4">OK</text>
	<text transform="matrix(1 0 0 1 131.9259 200.0037)" class="st2 st3 st4">OR</text>
	<text transform="matrix(1 0 0 1 952.3173 312.397)" class="st2 st3 st4">PA</text>
	<text transform="matrix(1 0 0 1 1073.1521 278.0198)" class="st2 st3 st4">RI</text>
	<text transform="matrix(1 0 0 1 913.4315 508.8506)" class="st2 st3 st4">SC</text>
	<text transform="matrix(1 0 0 1 507.2625 260.3182)" class="st2 st3 st4">SD</text>
	<text transform="matrix(1 0 0 1 792.387 477.0367)" class="st2 st3 st4">TN</text>
	<text transform="matrix(1 0 0 1 496.0392 615.0599)" class="st2 st3 st4">TX</text>
	<text transform="matrix(1 0 0 1 271.6043 363.9485)" class="st2 st3 st4">UT</text>
	<text transform="matrix(1 0 0 1 1021.4906 209.6898)" class="st2 st3 st4">VT</text>
	<text transform="matrix(1 0 0 1 963.9966 399.0276)" class="st2 st3 st4">VA</text>
	<text transform="matrix(1 0 0 1 128.6043 117.0095)" class="st2 st3 st4">WA</text>
	<text transform="matrix(1 0 0 1 896.1829 382.9414)" class="st2 st3 st4">WV</text>
	<text transform="matrix(1 0 0 1 707.5235 258.735)" class="st2 st3 st4">WI</text>
	<text transform="matrix(1 0 0 1 363.226 276.1502)" class="st2 st3 st4">WY</text>
</g>
</svg>
